<?xml version="1.0" encoding="UTF-8" standalone="no"?>
<!-- Created with Inkscape (http://www.inkscape.org/) -->

<svg
   width="240mm"
   height="120mm"
   viewBox="0 0 240 120"
   version="1.1"
   id="svg8"
   inkscape:version="1.2.2 (b0a8486541, 2022-12-01)"
   sodipodi:docname="disks-7.svg"
   xmlns:inkscape="http://www.inkscape.org/namespaces/inkscape"
   xmlns:sodipodi="http://sodipodi.sourceforge.net/DTD/sodipodi-0.dtd"
   xmlns="http://www.w3.org/2000/svg"
   xmlns:svg="http://www.w3.org/2000/svg"
   xmlns:rdf="http://www.w3.org/1999/02/22-rdf-syntax-ns#"
   xmlns:cc="http://creativecommons.org/ns#"
   xmlns:dc="http://purl.org/dc/elements/1.1/">
  <defs
     id="defs2">
    <marker
       id="marker-arrow-1.0616"
       orient="auto-start-reverse"
       refY="0"
       refX="0"
       markerHeight="1.6900001"
       markerWidth="0.91100001">
      <g
         transform="scale(1.3434313)"
         id="g436">
        <path
           d="M -1.55415,2.0722 C -1.42464,1.29512 0,0.1295 0.38852,0 0,-0.1295 -1.42464,-1.29512 -1.55415,-2.0722"
           style="fill:none;stroke:#000000;stroke-width:0.6;stroke-linecap:round;stroke-linejoin:round;stroke-miterlimit:10;stroke-dasharray:none;stroke-opacity:1"
           inkscape:connector-curvature="0"
           id="path434" />
      </g>
    </marker>
    <marker
       id="marker-arrow-1.0616-3"
       orient="auto-start-reverse"
       refY="0"
       refX="0"
       markerHeight="1.690"
       markerWidth="0.911">
      <g
         transform="scale(1.343431298668676)"
         id="g670">
        <path
           d="M -1.55415,2.0722 C -1.42464,1.29512 0,0.1295 0.38852,0 0,-0.1295 -1.42464,-1.29512 -1.55415,-2.0722"
           style="fill:none;stroke:#000000;stroke-width:0.6;stroke-linecap:round;stroke-linejoin:round;stroke-miterlimit:10;stroke-dasharray:none;stroke-opacity:1"
           inkscape:connector-curvature="0"
           id="path668" />
      </g>
    </marker>
    <marker
       id="marker-arrow-1.0616-6"
       orient="auto-start-reverse"
       refY="0"
       refX="0"
       markerHeight="1.690"
       markerWidth="0.911">
      <g
         transform="scale(1.343431298668676)"
         id="g701">
        <path
           d="M -1.55415,2.0722 C -1.42464,1.29512 0,0.1295 0.38852,0 0,-0.1295 -1.42464,-1.29512 -1.55415,-2.0722"
           style="fill:none;stroke:#000000;stroke-width:0.6;stroke-linecap:round;stroke-linejoin:round;stroke-miterlimit:10;stroke-dasharray:none;stroke-opacity:1"
           inkscape:connector-curvature="0"
           id="path699" />
      </g>
    </marker>
    <marker
       id="marker-arrow-1.5923999999999998"
       orient="auto-start-reverse"
       refY="0"
       refX="0"
       markerHeight="1.6900001"
       markerWidth="0.91100001">
      <g
         transform="scale(1.0733986)"
         id="g787">
        <path
           d="M -1.55415,2.0722 C -1.42464,1.29512 0,0.1295 0.38852,0 0,-0.1295 -1.42464,-1.29512 -1.55415,-2.0722"
           style="fill:none;stroke:#000000;stroke-width:0.6;stroke-linecap:round;stroke-linejoin:round;stroke-miterlimit:10;stroke-dasharray:none;stroke-opacity:1"
           inkscape:connector-curvature="0"
           id="path785" />
      </g>
    </marker>
    <clipPath
       clipPathUnits="userSpaceOnUse"
       id="clipPath3785">
      <path
         id="path3787"
         style="fill:#ff0000;fill-opacity:1;fill-rule:nonzero;stroke:none;stroke-width:0.264583"
         d="m 180.03554,259.31591 v 27.11049 h 11.13059 c -0.0149,-0.0549 -0.0279,-0.11022 -0.0393,-0.16589 -0.15281,-0.37286 -0.014,-0.46439 0.33383,-0.97048 0.0303,-0.0441 0.0991,-0.0399 0.14883,-0.0599 0.15082,-0.045 0.30698,-0.0463 0.46199,-0.0295 0.0475,0.005 0.0953,0.005 0.14314,0.006 0.1104,10e-4 0.22085,0.002 0.33125,0.002 0.0338,-0.002 0.0675,0.002 0.10128,0 0.009,-1.8e-4 -0.0178,0.002 -0.0258,-5.3e-4 -0.003,0 0.005,-0.002 0.007,-0.002 0.0168,-0.004 0.0332,-0.007 0.0501,-0.0103 0.16427,-0.0293 0.33212,-0.0332 0.49816,-0.0475 0.14512,-0.0252 0.29046,-0.0453 0.43615,-0.0667 0.005,-0.003 0.009,-0.006 0.0134,-0.009 0.0643,-0.0367 0.13037,-0.0699 0.19327,-0.10903 0.11631,-0.0715 0.23395,-0.14118 0.34882,-0.21498 0.21362,-0.13229 0.4326,-0.25441 0.65732,-0.3669 0.2835,-0.14984 0.56567,-0.30196 0.84646,-0.45682 0.32163,-0.17422 0.63671,-0.35972 0.94827,-0.55139 0.24371,-0.15295 0.48328,-0.31148 0.70176,-0.49971 0.12276,-0.0941 0.24643,-0.18802 0.36484,-0.28732 0.0407,-0.0463 0.0824,-0.0918 0.11472,-0.14469 0.0387,-0.0712 0.076,-0.14326 0.10852,-0.21756 0.0379,-0.089 0.0679,-0.18114 0.10025,-0.27234 0.0899,-0.2847 0.18812,-0.56641 0.28732,-0.84801 0.15003,-0.45791 0.29212,-0.91814 0.44029,-1.37666 0.19916,-0.60875 0.4107,-1.21365 0.58962,-1.82883 0.14334,-0.46737 0.29603,-0.93143 0.46974,-1.38854 0.087,-0.23235 0.17492,-0.46452 0.27544,-0.69143 0.0534,-0.15057 0.0952,-0.30481 0.14263,-0.45734 0.0928,-0.3157 0.19633,-0.62817 0.30282,-0.93948 0.0482,-0.29627 0.0803,-0.59397 0.0982,-0.894 0.0104,-0.11659 0.0241,-0.26978 0.0341,-0.38757 0.0175,-0.21356 0.0341,-0.42852 0.12557,-0.6258 0.0895,-0.18364 0.20182,-0.35144 0.36587,-0.47129 0.01,-0.0251 0.0209,-0.0496 0.0331,-0.0739 0.0356,-0.0713 0.0721,-0.14206 0.1142,-0.20981 0.0752,-0.13729 0.14768,-0.27631 0.23048,-0.40927 0.0483,-0.0808 0.0956,-0.16217 0.14314,-0.2434 -0.01,-0.0569 -0.0201,-0.11343 -0.0315,-0.17001 -0.0635,-0.29585 -0.14678,-0.58681 -0.23048,-0.87747 -0.10513,-0.35356 -0.22109,-0.70456 -0.30489,-1.06402 -0.0641,-0.27327 -0.12845,-0.5466 -0.19585,-0.81907 -0.0323,-0.12036 -0.066,-0.24038 -0.0961,-0.36122 -0.038,-0.10614 -0.0238,-0.0819 -0.0822,-0.19327 -0.0272,-0.0621 -0.0589,-0.12179 -0.0956,-0.1788 -0.13243,-0.18474 -0.2607,-0.37248 -0.39481,-0.55604 -0.17285,-0.24322 -0.35067,-0.48259 -0.52606,-0.72398 -0.25257,-0.33229 -0.49961,-0.66863 -0.75551,-0.99839 -0.3127,-0.41269 -0.62585,-0.82512 -0.94878,-1.2299 -0.26165,-0.33503 -0.51983,-0.67262 -0.76843,-1.01751 -0.19836,-0.27061 -0.39365,-0.54363 -0.57774,-0.82424 -0.0876,-0.13737 -0.17221,-0.27671 -0.24081,-0.42478 -0.002,-0.004 -0.003,-0.008 -0.005,-0.0124 -0.0828,-0.0396 -0.16617,-0.078 -0.2496,-0.11628 -0.62592,-0.2807 -1.25546,-0.55376 -1.88981,-0.81493 -0.28741,-0.11766 -0.57505,-0.23418 -0.86454,-0.34623 -0.10954,0.26811 -0.429,0.44537 -0.88677,0.36741 -0.14938,0.0427 -0.2806,0.0254 -0.46974,-0.0729 0.0182,0.005 0.017,0.008 -0.0372,-0.0181 -0.038,-0.0182 -0.0666,-0.0322 -0.10335,-0.0522 -0.0209,-0.0114 -0.0412,-0.0236 -0.062,-0.0351 -0.10449,-0.0625 -0.20655,-0.12927 -0.29766,-0.21032 -0.0369,0.0365 -0.0837,0.0638 -0.13022,0.0827 -0.0258,0.008 -0.0518,0.0152 -0.078,0.0202 0,0.0176 1e-5,0.0352 0,0.0527 -3e-5,0.0276 9e-5,0.055 0,0.0827 -1.4e-4,0.0395 -2.7e-4,0.0793 -0.001,0.11885 -5.3e-4,0.0315 -0.002,0.063 -0.003,0.0946 0.0567,0.0168 0.11432,0.0308 0.16795,0.0553 0.0323,0.0147 0.0594,0.0408 0.0858,0.0646 0.10288,0.0927 0.18061,0.20544 0.22325,0.33383 0.0239,0.0153 0.0476,0.0309 0.0708,0.0475 0.0559,0.0458 0.11575,0.087 0.16796,0.13695 0.20697,0.19803 0.33626,0.45714 0.3948,0.73328 0.0549,0.0686 0.10886,0.14006 0.16433,0.20878 0.072,0.0841 0.14277,0.16903 0.20877,0.25786 0.1011,0.13998 0.10072,0.2956 0.062,0.4563 -0.0477,0.14972 -0.0815,0.30301 -0.11008,0.45734 -0.0566,0.32736 0.0197,0.26598 -0.38292,0.25373 -0.0639,0.0312 -0.13475,0.031 -0.19843,-0.001 -0.002,5e-5 -0.005,-5e-5 -0.007,0 -5.3e-4,-0.002 -0.001,-0.003 -0.002,-0.005 -0.0917,-0.051 -0.16542,-0.16912 -0.17467,-0.3545 -0.051,0.0353 -0.0998,0.0742 -0.15399,0.10439 -0.10929,0.061 -0.23172,0.0971 -0.35554,0.108 -0.0156,0.18061 -0.0938,0.28905 -0.18448,0.32815 -0.002,0.11972 -0.009,0.23929 -0.0186,0.35863 -0.01,0.11399 -0.0183,0.2278 -0.0233,0.3421 -0.004,0.0875 -0.002,0.17548 -0.002,0.26303 0.002,0.0572 -5.3e-4,0.11438 0.002,0.17157 0.004,0.0598 0.005,0.11993 0.006,0.17983 0.001,0.0641 0.002,0.12815 0.002,0.19224 -0.001,0.0477 0.001,0.095 0.003,0.14262 0.006,0.0433 -0.002,0.0887 0.005,0.13178 0.007,0.0427 0.0162,0.0851 0.0233,0.12764 0.008,0.0495 0.0152,0.0993 0.0202,0.14935 0.002,0.0257 0.004,0.0512 0.005,0.077 7.9e-4,0.0164 5.3e-4,0.0327 5.3e-4,0.0491 9e-5,0.0398 5.3e-4,0.0796 5.3e-4,0.11937 0,0.0258 -1e-5,0.0516 0,0.0775 v 0.0351 0.0165 0.015 0.006 c 0,0.49991 -0.50541,0.49991 -0.50541,0 v -0.006 -0.015 -0.0165 c 0,-0.0117 1e-5,-0.023 0,-0.0346 0,-0.0258 1e-5,-0.0517 0,-0.0775 -3e-5,-0.0392 8e-5,-0.0786 0,-0.11783 -3e-5,-0.01 0,-0.0199 -5.3e-4,-0.03 -0.001,-0.0172 -0.002,-0.0345 -0.003,-0.0517 -0.003,-0.0366 -0.008,-0.0728 -0.0145,-0.10903 -0.01,-0.0573 -0.0241,-0.11412 -0.0289,-0.17209 -0.003,-0.0514 -0.004,-0.10303 -0.006,-0.15451 -0.002,-0.0532 -0.004,-0.10644 -0.003,-0.15968 -10e-4,-0.0622 -5.3e-4,-0.12437 -0.002,-0.18655 0,-0.0565 -0.001,-0.11308 -0.005,-0.1695 -0.002,-0.0619 -0.001,-0.12362 -0.002,-0.18552 -0.001,-0.0966 -0.002,-0.19334 0.002,-0.2899 0.005,-0.1202 0.0133,-0.2403 0.0238,-0.36019 0.01,-0.11474 0.0161,-0.22956 0.0181,-0.34468 0.003,-0.12187 0.004,-0.24405 0.009,-0.36587 0.003,-0.0654 0.006,-0.13098 0.0104,-0.19637 -0.0561,-0.0609 -0.106,-0.12859 -0.15038,-0.19844 -0.0238,9e-5 -0.0471,-0.002 -0.0708,-0.004 -0.0267,0.003 -0.0531,0.005 -0.0801,0.006 -0.0603,2.6e-4 -0.12067,0.005 -0.18086,0.002 -0.24506,-0.0152 -0.4661,-0.117 -0.63356,-0.29558 -0.0303,-0.0387 -0.0654,-0.0752 -0.0925,-0.11627 -0.1075,-0.16295 -0.12308,-0.36982 -0.0548,-0.54932 0.0191,-0.0365 0.0365,-0.0739 0.0579,-0.10904 0.0427,-0.0703 0.10256,-0.12926 0.16588,-0.18397 0.0298,-0.12414 0.0775,-0.24415 0.13798,-0.35605 0.0377,-0.0557 0.0703,-0.11516 0.11266,-0.16743 0.18574,-0.22937 0.46877,-0.35958 0.75447,-0.40308 0.004,-2.6e-4 0.008,-10e-4 0.0124,-0.002 0.004,-0.004 0.009,-0.007 0.0124,-0.0109 0.006,-0.0593 0.01,-0.11876 0.0124,-0.17828 0.002,-0.0451 0.003,-0.0902 0.004,-0.13539 5.3e-4,-0.0366 8e-4,-0.0735 0.001,-0.11007 8e-5,-0.0272 -3e-5,-0.0545 0,-0.0817 v -0.0641 -0.0651 -0.0362 c -0.005,-0.015 -0.008,-0.0307 -0.0114,-0.0475 -0.004,-0.004 -0.008,-0.008 -0.0124,-0.0119 -0.0617,-0.0619 -0.0986,-0.14551 -0.11575,-0.22996 -0.002,-0.0217 -0.005,-0.0433 -0.007,-0.0651 -0.004,-0.0572 0.007,-0.11565 0.0202,-0.17105 h -5.3e-4 c 0.037,-0.16098 0.14849,-0.23132 0.26613,-0.24391 -0.004,-0.007 -0.007,-0.0124 -0.0114,-0.0222 -0.0328,-0.0683 -0.022,-0.0494 -0.016,-0.0336 -0.0212,-0.0518 -0.0484,-0.10131 -0.0641,-0.15503 -0.005,-0.0177 -0.009,-0.0337 -0.0124,-0.0501 z m 14.66991,0 c 0.0406,0.0166 0.0813,0.033 0.12195,0.0496 0.64937,0.26732 1.29351,0.54675 1.93425,0.83405 0.20045,0.0901 0.40177,0.17895 0.58653,0.29869 0.19877,0.13921 0.31756,0.31022 0.39016,0.54209 -0.0383,-0.11136 0.012,0.0173 0.015,0.0238 0.04,0.0834 0.0902,0.16051 0.14005,0.23823 0.16755,0.25402 0.34458,0.50139 0.52451,0.74672 0.23981,0.3329 0.48954,0.65856 0.74209,0.98185 0.32733,0.41044 0.64466,0.82856 0.96168,1.24696 0.25548,0.32914 0.50182,0.66517 0.75396,0.99684 0.18498,0.25376 0.372,0.50576 0.55398,0.76171 0.13299,0.18186 0.25989,0.36833 0.3912,0.55138 0.0865,0.12415 0.15958,0.25651 0.22375,0.39326 v -7.66516 z m -2.71043,0.22065 c -0.0252,0.0136 -0.0497,0.027 -0.0755,0.0403 0.0221,-0.01 0.0435,-0.0198 0.0651,-0.0294 0.004,-0.004 0.007,-0.007 0.0104,-0.0109 z m -7.10499,5.71903 c 0.22923,-6e-5 0.40558,0.26595 0.22789,0.66146 -0.0186,0.0414 -0.0392,0.0817 -0.061,0.12144 -0.0172,0.028 -0.0357,0.055 -0.0568,0.0801 -0.003,0.005 -0.0147,0.0203 -0.0264,0.0346 -8e-4,7.9e-4 -10e-4,0.002 -0.002,0.003 v 5.3e-4 c -0.002,0.002 -0.003,0.004 -0.005,0.007 -7.9e-4,10e-4 0.001,0.002 -0.002,0.003 -7.9e-4,0.002 -0.001,10e-4 -0.002,0.003 -2.7e-4,2.7e-4 -8e-4,5.3e-4 0,-0.002 l -0.009,0.015 c -0.002,0.002 -0.003,0.004 -0.005,0.007 -5.3e-4,7.9e-4 -5.3e-4,7.9e-4 -0.001,0.002 -0.001,0.001 -0.002,0.002 -0.003,0.004 -0.004,0.007 -0.006,0.0123 0,0.002 -0.021,0.0354 -0.0498,0.0679 -0.0811,0.0966 -0.002,0.002 -0.005,0.004 -0.008,0.007 -0.0115,0.0118 -0.0155,0.0147 -0.0228,0.0207 -0.003,0.002 -0.003,0.004 -0.008,0.008 -7.9e-4,5.2e-4 -0.002,7.9e-4 -0.003,0.002 8e-4,-5.3e-4 5.3e-4,-10e-4 0.002,-0.002 -5.3e-4,5.2e-4 -0.001,5.2e-4 -0.002,0.001 l -0.007,0.007 -0.007,0.007 c -7.9e-4,5.3e-4 -0.003,0.002 -0.004,0.003 l -5.3e-4,5.3e-4 c -0.004,0.005 -0.006,0.007 -0.01,0.0114 -0.0113,0.0173 -0.0247,0.0336 -0.0372,0.0501 -0.0136,0.02 -0.0284,0.039 -0.0439,0.0574 -0.002,0.003 -0.004,0.005 -0.006,0.007 -0.005,0.007 -0.009,0.0142 -0.0145,0.0212 -0.0199,0.0278 -0.0429,0.0534 -0.0661,0.0786 -0.0106,0.0113 -0.0202,0.022 -0.031,0.0331 -7.9e-4,7.9e-4 -0.0109,0.013 -0.0155,0.0181 0.032,-0.003 0.0636,-0.005 0.0956,-0.007 0.13667,-0.01 0.27384,-0.0134 0.41083,-0.016 0.12186,-0.002 0.24396,-0.003 0.36587,-0.003 0.0816,-0.002 0.1629,0.003 0.24391,0.0124 0.0258,0.002 0.0511,0.007 0.077,0.008 0.0675,0.003 0.13507,-5.3e-4 0.20257,-0.004 0.10559,-0.005 0.21223,-0.0123 0.31781,-0.0176 0.0573,-0.003 0.11365,-0.005 0.17105,-0.007 0.0298,-7.9e-4 0.0596,-10e-4 0.0894,-0.002 0.0356,-1.1e-4 0.0715,0.003 0.10697,0.007 0.0294,0.004 0.0598,0.006 0.0894,0.008 0.0442,0.004 0.0886,0.006 0.13281,0.007 0.10008,0.003 0.20012,0.005 0.30024,0.007 0.11374,0.003 0.22711,-7.9e-4 0.34055,-0.008 0.0827,-0.007 0.16595,-0.017 0.24856,-0.0248 0.0475,-0.005 0.0944,-0.008 0.14211,-0.01 0.0548,-0.002 0.11015,-0.002 0.16485,0 0.0645,0.004 0.12867,0.007 0.19327,0.01 0.0495,0.002 0.0988,0.002 0.14831,0.003 0.0226,0.002 0.0432,-0.002 0.0651,-0.006 0.0566,-0.0121 0.11376,-0.0215 0.17105,-0.03 0.045,-0.007 0.0901,-0.0116 0.1354,-0.015 0.0181,-0.002 0.0372,-0.002 0.0553,-0.003 0.008,-0.003 0.0569,-0.0121 0.0584,-0.0124 0.0335,-0.006 0.0674,-0.009 0.10129,-0.0109 0.0199,-10e-4 0.039,-0.002 0.0589,-0.002 0.0189,-2.7e-4 0.0379,-5.3e-4 0.0568,-5.3e-4 0.0223,-4e-5 0.0444,10e-6 0.0667,0 h 0.008 c 0.1744,-5e-5 0.28672,0.0616 0.33951,0.14159 0.002,-2.7e-4 0.004,-8e-4 0.006,-0.001 0.0241,-0.0169 0.0482,-0.0342 0.0729,-0.0501 0.006,-0.003 0.0121,-0.007 0.0181,-0.0103 0.0811,-0.0469 0.15695,-0.0669 0.22375,-0.0672 0.28942,-0.001 0.40695,0.3672 0.0253,0.50643 7.9e-4,-8e-4 5.3e-4,-0.002 0.002,-0.002 -0.001,8e-4 -0.004,0.003 -0.01,0.007 -0.015,0.0107 -0.0298,0.0222 -0.045,0.0326 -0.005,0.004 -0.0105,0.007 -0.0155,0.0104 -0.0501,0.0322 -0.10338,0.06 -0.16329,0.0677 -0.0215,0.003 -0.0177,0.002 -0.032,0.005 -0.0276,0.006 -0.0536,0.0195 -0.0822,0.0217 -0.0141,0.002 -0.028,0.006 -0.0413,0.0119 -0.0319,0.0102 -0.0642,0.0182 -0.0977,0.0212 -0.0173,0.002 -0.0348,0.005 -0.0517,0.01 -0.26166,0.0734 -0.41922,-0.0383 -0.43099,-0.17674 -0.004,5.3e-4 -0.009,0.002 -0.0129,0.002 -0.0239,0.002 -0.0479,0.002 -0.0718,0.004 -0.033,0.002 -0.0659,0.006 -0.0987,0.0109 -0.0505,0.007 -0.10049,0.0168 -0.15038,0.0274 -0.0549,0.01 -0.11039,0.0173 -0.1664,0.015 -0.0538,-8e-4 -0.10794,7.9e-4 -0.16174,-0.003 -0.0645,-0.003 -0.12877,-0.007 -0.19327,-0.0114 -0.0422,-0.002 -0.0844,-2.7e-4 -0.12661,5.2e-4 -0.0378,10e-4 -0.0756,0.004 -0.11317,0.008 -0.0858,0.008 -0.17145,0.0178 -0.25735,0.0253 -0.12862,0.01 -0.2576,0.0136 -0.38654,0.009 -0.10232,-0.002 -0.20466,-0.004 -0.30696,-0.007 -0.0519,-0.002 -0.10384,-0.004 -0.15554,-0.008 -0.0344,-0.003 -0.0686,-0.005 -0.10284,-0.009 -0.0186,-0.002 -0.0378,-0.003 -0.0517,-0.004 -0.0264,2.1e-4 -0.0527,2.7e-4 -0.0791,10e-4 -0.0536,0.002 -0.10711,0.004 -0.16071,0.006 -0.10668,0.005 -0.21317,0.0128 -0.31988,0.0176 -0.0837,0.004 -0.16787,0.008 -0.25167,0.004 -0.0358,-0.002 -0.0713,-0.006 -0.10697,-0.0103 -0.0615,-0.007 -0.1236,-0.0121 -0.18551,-0.0103 -0.11943,5.2e-4 -0.23868,2.6e-4 -0.35812,0.003 -0.1284,0.002 -0.25687,0.006 -0.38499,0.015 -0.16758,0.0116 -0.33437,0.0287 -0.50178,0.0424 -0.13291,0.0107 -0.26629,0.0189 -0.39842,0.0372 -0.13803,0.0192 -0.24283,-0.005 -0.31213,-0.0527 -0.01,0.005 -0.0188,0.0105 -0.0284,0.0145 -0.035,0.0144 -0.0534,0.0213 -0.0677,0.0269 -0.0186,0.008 -0.0383,0.0133 -0.0579,0.0181 -0.006,0.002 -0.0263,0.007 -0.0346,0.0104 -0.038,0.006 -0.0776,0.0178 -0.11679,0.0191 -0.002,5.3e-4 -0.003,-5.3e-4 -0.0114,0.003 -0.0258,0.006 -0.0225,0.004 -0.0651,0.0103 h -5.3e-4 c -0.003,8e-4 -0.008,0.002 -0.0155,0.004 l -0.0155,0.003 c -0.004,7.9e-4 -0.008,0.002 -0.0119,0.003 -0.003,7.9e-4 -0.005,5.3e-4 -0.0103,0.002 -0.003,7.9e-4 -0.005,-1.4e-4 -0.0124,0.003 -0.008,0.002 -0.0196,0.005 -0.0315,0.007 -0.003,10e-4 -0.006,0.002 -0.008,0.003 -0.0287,0.011 -0.0613,0.0154 -0.092,0.0196 -7.9e-4,1.6e-4 -2.6e-4,1.2e-4 -0.002,5.3e-4 -0.0167,0.004 -0.0341,0.006 -0.0506,0.009 -0.0793,0.01 -0.001,-2.6e-4 -0.0641,0.008 -0.007,5.3e-4 -0.02,0.002 -0.0336,0.004 h -5.2e-4 c -0.0195,0.007 -0.0385,0.0131 -0.0589,0.0191 -0.002,5.3e-4 -0.004,5.3e-4 -0.006,0.002 -0.0113,0.004 -0.0228,0.007 -0.0341,0.0103 -0.0324,0.009 -0.0657,0.0152 -0.0992,0.0186 -0.011,0.001 -0.0225,1.5e-4 -0.0336,0.002 -0.0336,0.008 -0.0675,0.0117 -0.1018,0.015 -0.0394,0.002 -0.0788,0.002 -0.11834,0.003 -0.0276,2.6e-4 -0.0556,5.3e-4 -0.0832,5.3e-4 -0.0326,5e-5 -0.0651,-10e-6 -0.0977,0 -0.027,1e-5 -0.0541,0 -0.0811,0 h -0.077 c -0.0327,0.002 -0.0644,-0.002 -0.0956,-0.008 0.0365,0.005 0.14309,0.0152 0.11059,-0.003 -0.10597,-0.0568 -0.22666,-0.0798 -0.34003,-0.11989 -0.32888,-0.11624 -0.0442,-0.17684 0.25322,-0.23512 -0.0234,0.005 -0.0469,0.01 -0.0708,0.0124 -0.003,2.6e-4 -0.005,2e-4 -0.008,5.3e-4 -0.0273,0.003 -0.0519,7.9e-4 -0.0729,-0.003 -0.008,10e-4 -0.016,0.002 -0.0243,0.002 -0.006,-9e-5 -0.0119,-5.3e-4 -0.0176,-0.002 -0.006,0.002 -0.0115,0.003 -0.0155,0.003 -0.005,-5.3e-4 -0.01,-2e-4 -0.015,-0.002 -0.007,-10e-4 -0.0127,-0.003 -0.0196,-0.005 -0.006,-0.002 -0.0111,-0.003 -0.017,-0.005 -0.007,-0.002 -0.0147,-0.004 -0.0217,-0.005 -0.008,-0.001 -0.0152,-8e-4 -0.0233,-5.3e-4 -0.008,9e-5 -0.0168,-1.2e-4 -0.0248,5.3e-4 -0.01,5.3e-4 -0.0194,0.002 -0.0284,0.004 -0.0103,0.002 -0.0203,0.004 -0.0305,0.006 -0.01,0.002 -0.019,0.003 -0.0284,-5.3e-4 -0.0143,0.0293 -0.0384,0.0343 -0.0527,0.0243 -0.0334,0.0446 -0.0796,0.012 -0.0486,-0.0388 0.003,-0.005 0.007,-0.0105 0.0103,-0.0155 l 0.004,-0.007 c 0.002,-0.003 0.004,-0.007 0.006,-0.0114 7.9e-4,-0.002 0.005,-0.006 0.006,-0.008 l 5.3e-4,-0.002 c 2.5e-4,-0.001 5.3e-4,-0.002 0.001,-0.004 0.002,-0.005 0.004,-0.0102 0.007,-0.015 0.002,-0.004 0.005,-0.007 0.006,-0.0108 l 0.003,-0.008 c 0.004,-0.007 0.007,-0.0139 0.0114,-0.0207 0.001,-0.003 0.003,-0.006 0.005,-0.009 -0.002,-0.009 5.3e-4,-0.0197 0.004,-0.0325 0.002,-0.004 0.003,-0.009 0.005,-0.0134 2e-4,-5.3e-4 1.5e-4,-0.001 5.2e-4,-0.002 0.004,-0.01 0.008,-0.0171 0.0135,-0.0227 5.2e-4,-0.001 5.2e-4,-0.002 0.001,-0.004 0.004,-0.0105 0.008,-0.0209 0.0119,-0.0315 0.002,-0.006 0.004,-0.012 0.006,-0.0181 1.5e-4,-0.002 5.3e-4,-0.005 0.001,-0.007 0.002,-0.009 0.008,-0.0167 0.0134,-0.0243 0.005,-0.007 0.0105,-0.015 0.0155,-0.0222 0.003,-0.004 0.005,-0.007 0.008,-0.0103 0.003,-0.004 0.006,-0.009 0.01,-0.0119 0.002,-0.002 0.005,-0.003 0.007,-0.005 0.008,-0.005 0.0185,-0.008 0.0274,-0.0119 0.01,-0.003 0.0203,-0.004 0.0305,-0.005 0.0102,-10e-4 0.0205,4e-5 0.0305,0.003 0.007,0.002 0.0142,0.005 0.0212,0.007 0.004,0.001 0.007,0.002 0.0114,0.003 0.003,0.001 0.01,0.003 0.0129,0.005 0.004,0.003 0.006,0.006 0.0103,0.009 8e-4,0.002 5.3e-4,0.003 0.002,0.005 0.006,-0.008 0.0135,-0.0159 0.0212,-0.0227 0.004,-0.004 0.008,-0.007 0.0124,-0.0104 0.0107,-0.003 0.0209,-0.008 0.032,-0.008 0.006,0 0.013,0.003 0.017,0.008 0.0113,0.0117 0.0143,0.0214 0.0145,0.032 0.005,-0.002 0.009,-0.005 0.0134,-0.007 0.0186,-0.008 0.0402,-0.0144 0.0605,-0.0165 0.005,-5.3e-4 0.0105,-1.3e-4 0.0155,-5.3e-4 0.004,2.6e-4 0.008,2.6e-4 0.0124,5.3e-4 0.002,-2.6e-4 0.005,-1.6e-4 0.007,-5.3e-4 -0.0122,-0.006 -0.0249,-0.0103 -0.0367,-0.0165 -0.0337,-0.0181 0.0768,-0.009 0.11472,-0.004 0.004,5.3e-4 0.009,0.002 0.0129,0.003 h 0.032 0.0346 c 0.0269,0 0.0537,10e-6 0.0806,0 0.0323,-1e-5 0.0643,-5.3e-4 0.0966,-5.3e-4 0.0253,-4e-5 0.0507,2.6e-4 0.076,0 0.0253,-2.5e-4 0.0507,5.3e-4 0.076,-0.002 0.002,-5.3e-4 0.004,-5.3e-4 0.006,-10e-4 0.0345,-0.008 0.0699,-0.0147 0.10542,-0.015 0.0115,-0.004 0.0152,-0.004 0.0264,-0.008 0.001,-5.3e-4 5.3e-4,-5.3e-4 0.002,-10e-4 0.0207,-0.008 0.0134,-0.005 0.0517,-0.0186 0.0413,-0.008 0.0813,-0.0177 0.12299,-0.0212 0.0194,-0.002 0.0485,-0.009 0.0656,-0.009 0.0188,-0.004 0.0475,-0.0116 0.0512,-0.009 -0.003,10e-4 -0.0134,0.003 -0.017,0.005 -8e-4,5.3e-4 -0.002,5.3e-4 -0.003,0.002 0.0247,-0.007 0.0492,-0.0143 0.0739,-0.0212 h 0.001 c 0.001,-2.5e-4 0.003,-8e-4 0.004,-10e-4 0.0416,-0.0362 0.0817,-0.0521 0.11524,-0.0527 h 0.001 c 0.0229,-5.3e-4 0.0425,0.006 0.0579,0.0181 0.0121,-0.003 0.0239,-0.005 0.0264,-0.006 0.05,-0.007 0.0268,-0.005 0.0522,-0.007 h 5.3e-4 c 0.0126,-7.9e-4 0.0147,-5.3e-4 0.0145,-5.3e-4 0.004,-10e-4 0.007,-0.002 0.0103,-0.003 0.0134,-0.006 0.0437,-0.0186 0.0258,-0.009 -0.001,5.3e-4 0.002,-5.3e-4 0.003,-10e-4 0.0334,-0.0151 0.0648,-0.0342 0.0992,-0.0475 0.0362,-0.0152 0.0727,-0.0306 0.10904,-0.0455 0.0232,-0.009 0.0462,-0.0188 0.0682,-0.031 0.0405,-0.0195 0.0826,-0.0355 0.12609,-0.047 0.0349,-0.0107 0.0693,-0.0221 0.10541,-0.0284 0.004,-7.9e-4 0.0185,-0.004 0.031,-0.007 0.0333,-0.0129 0.0472,-0.0174 0.0496,-0.017 h 5.2e-4 c 0.0286,-0.0128 0.0579,-0.022 0.0873,-0.0331 10e-4,-1.2e-4 0.002,-5.3e-4 0.002,-5.3e-4 0.0162,-0.004 0.0381,-0.0103 0.0579,-0.0145 0.003,-10e-4 0.005,-0.002 0.008,-0.004 0.001,-7.9e-4 0.003,-2.6e-4 0.005,-0.002 0.0236,-0.009 0.0453,-0.0222 0.0677,-0.0336 7.9e-4,-5.3e-4 5.3e-4,2e-5 0.002,-5.3e-4 0.007,-0.006 0.006,-0.005 0.0103,-0.009 5.2e-4,-0.002 0.0118,-0.0103 0.015,-0.0145 h 0.001 c 0.006,-0.006 0.006,-0.007 0.0103,-0.0113 0.008,-0.009 0.0171,-0.0189 0.0253,-0.0279 0.003,-0.002 0.005,-0.005 0.007,-0.007 0.0127,-0.0129 0.0252,-0.0261 0.0377,-0.0393 10e-4,-0.002 0.005,-0.006 0.007,-0.008 l 5.3e-4,-5.3e-4 0.001,-5.3e-4 c 5.3e-4,-10e-4 -1.8e-4,-0.003 0.002,-0.003 0.0245,-0.0361 0.0245,-0.036 0.0429,-0.0568 0.002,-0.002 0.003,-0.004 0.005,-0.006 0.006,-0.007 0.0146,-0.0196 0.016,-0.0228 0.0173,-0.0232 0.0357,-0.0446 0.0527,-0.0682 0.0158,-0.0184 0.018,-0.0202 0.0243,-0.0274 0.002,-0.003 0.002,-0.004 0.0145,-0.0186 0.007,-0.008 0.0162,-0.0145 0.0238,-0.0222 0.003,-0.004 0.0179,-0.0184 0.0233,-0.0243 h 5.3e-4 c 0.001,-10e-4 0.002,-0.002 0.003,-0.004 h 5.3e-4 v -5.3e-4 c 0.004,-0.004 0.0129,-0.0115 0.0155,-0.0134 0.002,-0.001 2.2e-4,-0.002 0.003,-0.003 0.002,-0.002 0.004,-0.003 0.006,-0.005 0.004,-0.004 0.007,-0.006 0.0129,-0.0124 l 5.3e-4,-5.3e-4 5.3e-4,-5.3e-4 c 5.3e-4,-7.9e-4 7.9e-4,-5.3e-4 10e-4,-0.001 0.002,-0.004 0.005,-0.007 0.007,-0.0103 2.6e-4,-5.3e-4 7.9e-4,-5.3e-4 0.001,-0.002 7.9e-4,-10e-4 -1.3e-4,-0.003 0.002,-0.004 0.002,-0.002 0.002,-0.003 0.004,-0.007 0.002,-0.003 0.003,-0.005 0.0119,-0.0181 0.0171,-0.0219 0.0151,-0.0191 0.0212,-0.0269 -0.008,0.0106 0.0323,-0.0438 0.0243,-0.0331 0.002,-0.003 0.005,-0.006 0.008,-0.009 5.3e-4,-5.3e-4 -6e-5,-0.002 5.3e-4,-0.002 0.009,-0.0186 0.022,-0.0435 0.0238,-0.0481 h -5.3e-4 c 0.11081,-0.2549 0.27938,-0.36426 0.42634,-0.36431 z m -0.0579,1.06609 c -7.9e-4,7.9e-4 -0.006,0.005 -0.009,0.008 0.006,-0.006 0.0113,-0.01 0.009,-0.008 z m -0.0434,0.0367 c -0.002,10e-4 -0.003,0.002 -0.005,0.004 7.9e-4,-5.3e-4 0.004,-0.002 0.005,-0.003 z m -1.65261,0.15658 v 5.3e-4 c -0.001,1.8e-4 -0.002,5e-5 -0.003,5.3e-4 0.001,-2.7e-4 0.002,-5.3e-4 0.003,-0.001 z m -1.11828,0.154 v 5.3e-4 5.3e-4 c 0.002,2.6e-4 0.004,7.9e-4 0.005,10e-4 -0.002,-5.3e-4 -0.003,-10e-4 -0.005,-0.002 z m 0.004,0.003 v 5.3e-4 c 0.0244,0.009 0.0482,0.0186 0.0734,0.0248 0.0143,0.004 -0.0272,-0.0117 -0.0408,-0.0171 -0.0128,-0.003 -0.0226,-0.006 -0.0326,-0.008 z m -0.10335,0.34364 c -0.005,10e-4 -0.01,0.002 -0.015,0.004 0.005,-0.001 0.0101,-0.002 0.0155,-0.003 -1.8e-4,-2.6e-4 -2.1e-4,-7.9e-4 -5.3e-4,-10e-4 z m 1.17512,0.21963 c -0.002,10e-4 -0.007,0.004 -0.0114,0.006 0.004,-0.002 0.007,-0.004 0.0114,-0.005 z m -0.0114,0.006 c -0.0145,0.006 -0.0291,0.0122 -0.0434,0.0186 0.006,-0.002 0.006,-0.002 0.0129,-0.004 0.007,-0.004 0.02,-0.009 0.0305,-0.0139 z m -1.31516,0.0956 c 0.0344,0.008 0.0661,0.0259 0.10025,0.0341 -0.0176,-0.004 -0.035,-0.008 -0.0527,-0.0124 -0.0159,-0.007 -0.0644,-0.0256 -0.0475,-0.0217 z m 12.90205,3.14141 c 0.0331,-1e-5 0.0672,10e-4 0.10232,0.004 0.0633,0.004 0.12614,0.009 0.18914,0.0165 0.14598,0.0177 0.29144,0.0403 0.43511,0.0718 0.1468,0.0334 0.2922,0.0735 0.4377,0.11214 0.0929,0.024 0.18599,0.0466 0.28009,0.0651 1.10585,0.21784 0.8827,1.33409 -0.22324,1.11673 -0.11443,-0.0225 -0.22762,-0.0506 -0.34055,-0.0796 -0.13418,-0.0339 -0.26675,-0.074 -0.40204,-0.10336 -0.10634,-0.0229 -0.21395,-0.0395 -0.32195,-0.0522 -0.0422,-0.005 -0.0846,-0.008 -0.12712,-0.0109 -1.08974,-0.0691 -1.05523,-1.1394 -0.0295,-1.13998 z m 7.37526,8.14782 c -0.0968,0.24238 -0.20075,0.48191 -0.32452,0.7121 -0.11734,0.21086 -0.2424,0.41636 -0.37879,0.61548 -0.12635,0.21232 -0.25541,0.42455 -0.40825,0.61908 -0.0978,0.10797 -0.1911,0.21959 -0.2899,0.32659 -0.10611,0.10378 -0.20913,0.21098 -0.31781,0.31213 -0.0205,0.0227 -0.0421,0.0443 -0.0625,0.0672 -0.005,0.005 -0.0159,0.022 -0.0129,0.016 0.007,-0.0154 0.0328,-0.0579 0.0248,-0.0434 -0.0662,0.11364 5.3e-4,0.0131 -0.14211,0.19844 -0.13677,0.10524 -0.22605,0.18327 -0.32195,0.21704 -0.0611,0.2655 -0.12047,0.53133 -0.18397,0.79633 -0.066,0.23778 -0.13163,0.4783 -0.27698,0.68213 -0.0796,0.1248 -0.16665,0.24444 -0.27389,0.34727 -0.0632,0.06 -0.11865,0.12732 -0.17725,0.19172 -0.1236,0.14056 -0.2472,0.28163 -0.3824,0.41134 -0.23279,0.23205 -0.46947,0.45953 -0.72554,0.66611 -0.23942,0.21097 -0.48476,0.4158 -0.73329,0.61598 -0.20125,0.15113 -0.39959,0.31026 -0.63355,0.40876 -0.2157,0.0983 -0.43356,0.19322 -0.65733,0.27182 -0.17387,0.0568 -0.34818,0.11193 -0.52606,0.15503 -0.14371,0.0397 -0.28795,0.0771 -0.4315,0.11731 -0.13471,0.032 -0.26921,0.0649 -0.40411,0.0961 h 7.63984 z" />
    </clipPath>
    <clipPath
       clipPathUnits="userSpaceOnUse"
       id="clipPath3831">
      <path
         id="path3833"
         style="fill:#ff0000;fill-opacity:1;fill-rule:nonzero;stroke:none;stroke-width:0.264583"
         d="m 190.12433,266.75576 c 5.3e-4,0.10078 -0.0704,0.20977 -0.24184,0.27234 7.9e-4,-7.9e-4 0.001,-0.002 0.002,-0.002 -0.001,8e-4 -0.004,0.003 -0.0103,0.007 -0.015,0.0107 -0.0298,0.0222 -0.045,0.0326 -0.005,0.004 -0.0105,0.007 -0.0155,0.0103 -0.0501,0.0322 -0.1034,0.06 -0.1633,0.0677 -0.0215,0.003 -0.0177,0.002 -0.032,0.005 -0.0276,0.006 -0.0536,0.0195 -0.0822,0.0217 -0.0141,0.002 -0.028,0.006 -0.0413,0.0108 -0.0319,0.0102 -0.0642,0.0182 -0.0977,0.0212 -0.0173,0.002 -0.0348,0.005 -0.0517,0.0103 -0.26069,0.0731 -0.41818,-0.0374 -0.43098,-0.17518 -0.005,7.9e-4 -0.01,0.002 -0.015,0.002 -0.0239,0.002 -0.0479,0.002 -0.0718,0.004 -0.033,0.002 -0.0659,0.006 -0.0987,0.0114 -0.0505,0.007 -0.10048,0.0163 -0.15038,0.0269 -0.0549,0.01 -0.1104,0.0173 -0.1664,0.015 -0.0538,-7.9e-4 -0.10795,-2.7e-4 -0.16175,-0.003 -0.0645,-0.003 -0.12879,-0.007 -0.19327,-0.0103 -0.0422,-0.002 -0.0844,-2.7e-4 -0.1266,5.3e-4 -0.0378,0.001 -0.0756,0.004 -0.11317,0.008 -0.0858,0.008 -0.17145,0.0178 -0.25735,0.0253 -0.12861,0.01 -0.25759,0.0125 -0.38654,0.009 -0.10232,-0.002 -0.20467,-0.004 -0.30696,-0.007 -0.0519,-0.002 -0.10385,-0.004 -0.15555,-0.008 -0.0344,-0.003 -0.0686,-0.005 -0.10283,-0.009 -0.0186,-0.002 -0.0378,-0.003 -0.0517,-0.004 -0.0264,2e-4 -0.0527,2.6e-4 -0.0791,0.001 -0.0536,0.002 -0.10712,0.004 -0.16072,0.006 -0.0483,0.002 -0.0964,0.005 -0.14469,0.008 v 11.87575 h 4.57026 c -0.0631,-0.17001 -0.12703,-0.3397 -0.18345,-0.5121 -0.0385,-0.11285 -0.0649,-0.23413 -0.0879,-0.34779 -0.0234,-0.0839 -0.0484,-0.16742 -0.0739,-0.25063 -0.0539,-0.16343 -0.0924,-0.33099 -0.12247,-0.50022 -0.0184,-0.10481 -0.0292,-0.21073 -0.0372,-0.31678 -0.004,-0.0527 -0.006,-0.10535 -0.007,-0.15814 -0.007,-0.15816 -0.0115,-0.31656 -0.0124,-0.4749 -0.005,-0.35307 0.0407,-0.70345 0.0868,-1.05265 0.0492,-0.33232 0.0881,-0.66598 0.12403,-0.99994 0.0295,-0.3087 0.0691,-0.61605 0.10955,-0.92346 0.0255,-0.21374 0.0634,-0.42551 0.0992,-0.63769 0.10524,-0.62294 0.43816,-0.92808 0.76119,-0.95704 0.002,-0.0493 0.003,-0.0985 0.005,-0.1478 0.009,-0.33932 0.0212,-0.67923 0.006,-1.01854 h 5.3e-4 c -0.0654,-1.45158 1.39293,-1.53704 1.46503,-0.0858 0.0192,0.3815 0.007,0.76358 -0.004,1.14516 -0.0235,0.70567 -0.0493,1.41116 -0.061,2.11718 -0.0168,0.63737 0.0118,1.2746 0.0527,1.91047 0.0325,0.47052 0.0735,0.94032 0.10697,1.41077 0.005,0.0684 0.009,0.13675 0.0134,0.20515 0.0431,-0.0492 0.0867,-0.0979 0.12971,-0.14728 0.14572,-0.16825 0.29569,-0.33278 0.44803,-0.49506 0.1807,-0.18627 0.32224,-0.40618 0.46095,-0.62425 0.22177,-0.35311 0.43526,-0.71129 0.6103,-1.09036 0.0478,-0.1035 0.0896,-0.20988 0.13436,-0.31472 0.13076,-0.32757 0.26364,-0.65641 0.36949,-0.99322 0.10168,-0.32357 0.17623,-0.65542 0.25063,-0.98599 0.0701,-0.31654 0.12513,-0.63599 0.17001,-0.95704 -0.002,-5.3e-4 -0.005,-10e-4 -0.007,-0.002 -0.13418,-0.0339 -0.26675,-0.074 -0.40204,-0.10336 -0.10634,-0.0229 -0.21395,-0.0395 -0.32195,-0.0522 -0.0422,-0.005 -0.0846,-0.008 -0.12713,-0.0109 -1.08973,-0.0691 -1.05523,-1.1394 -0.0294,-1.13998 0.0331,-2e-5 0.0672,0.001 0.10232,0.004 0.0586,0.004 0.11686,0.008 0.17519,0.015 -0.0811,-0.072 -0.16818,-0.13703 -0.25219,-0.20566 -0.0849,-0.069 -0.16954,-0.13847 -0.25373,-0.20827 -0.13149,-0.10891 -0.24675,-0.23564 -0.36484,-0.35862 -0.0832,-0.0848 -0.16271,-0.1732 -0.25011,-0.25375 -0.11126,-0.10233 -0.22226,-0.20492 -0.33745,-0.30281 -0.11832,-0.097 -0.23074,-0.20129 -0.34467,-0.30335 -0.0897,-0.0791 -0.17854,-0.15881 -0.26614,-0.2403 -0.0393,-0.0383 -0.0815,-0.0737 -0.12403,-0.108 -0.0482,-0.034 -0.10289,-0.0606 -0.15709,-0.0842 -0.0849,-0.0334 -0.1698,-0.0666 -0.25271,-0.10491 -0.10379,-0.0456 -0.19572,-0.11172 -0.29092,-0.17209 -0.0654,-0.0402 -0.12942,-0.0828 -0.19172,-0.12763 -0.12011,-0.0845 -0.21345,-0.1945 -0.30335,-0.30902 -0.0535,-0.0758 -0.0925,-0.15925 -0.13281,-0.24238 -0.13195,-0.27202 -0.17947,-0.51499 -0.16587,-0.71778 h -0.0264 c -0.0879,0.0899 -0.21391,0.0899 -0.30179,0 z m 2.58227,0.002 c 0.0134,0.0249 0.0264,0.0505 0.0393,0.077 0.002,0.004 0.009,0.0179 0.015,0.0294 0.0228,0.015 0.053,0.0345 0.0532,0.0346 0.0141,0.009 0.0283,0.0179 0.0424,0.0269 0.0515,0.034 0.0672,0.0492 0.11731,0.0744 0.073,0.0436 0.16337,0.0545 0.23669,0.0982 0.15409,0.0722 0.30576,0.15119 0.44079,0.25579 0.0782,0.062 0.15517,0.12636 0.22738,0.19534 0.0807,0.0753 0.16338,0.14851 0.24597,0.22169 0.10465,0.0939 0.20694,0.18989 0.31575,0.27906 0.13378,0.1142 0.26419,0.23243 0.39326,0.35191 0.10355,0.0987 0.20287,0.20158 0.30127,0.30541 0.0796,0.0829 0.15669,0.16984 0.24339,0.24495 0.0816,0.0677 0.16358,0.13516 0.24598,0.20205 0.0946,0.0775 0.19228,0.15146 0.28422,0.23203 v -2.62826 z m 3.20187,9.0134 c -0.1903,0.39722 -0.41678,0.77546 -0.6506,1.14825 -0.18882,0.29318 -0.38294,0.58651 -0.62684,0.83768 -0.1399,0.14887 -0.27759,0.29978 -0.41134,0.45423 -0.17182,0.19717 -0.34371,0.39383 -0.52452,0.58291 -0.0611,0.0652 -0.12226,0.13019 -0.18397,0.19482 h 2.39727 z" />
    </clipPath>
    <clipPath
       clipPathUnits="userSpaceOnUse"
       id="clipPath3961">
      <path
         id="path3963"
         style="fill:#ff0000;fill-opacity:1;fill-rule:nonzero;stroke:none;stroke-width:0.264583"
         d="m 180.03552,259.31591 v 27.11048 h 22.00899 v -27.11048 z m 11.76156,2.58072 c 0.23403,-5.3e-4 0.46805,0.007 0.70177,0.0217 0.23051,0.0213 0.46517,0.0317 0.69143,0.0853 0.0564,0.0133 0.11204,0.0307 0.16794,0.046 0.24317,0.0724 0.46638,0.19168 0.67748,0.33021 0.10735,0.0743 0.21132,0.15384 0.31264,0.23616 0.30956,0.22404 0.33133,0.79063 -0.015,0.99219 -0.0924,0.0538 -0.20223,0.0697 -0.30334,0.10439 -0.3062,0.0363 -0.61541,0.0407 -0.92346,0.0439 -0.4297,0.0146 -0.85187,-0.068 -1.26814,-0.16433 -0.30738,-0.0739 -0.61032,-0.16479 -0.91002,-0.2651 -0.12888,-0.0385 -0.25004,-0.0987 -0.37672,-0.14314 0.0308,0.003 -0.0913,-0.0284 -0.0501,-0.0155 0.0127,0.004 0.0178,0.005 0.0227,0.007 0.002,-5.3e-4 0.006,2.7e-4 0.007,10e-4 -0.001,-9e-5 -0.003,-5e-5 -0.007,-10e-4 -0.001,5.3e-4 -0.001,0.002 0.002,0.005 -0.19182,-0.002 -0.38389,-0.006 -0.57568,-0.0109 -0.22783,0.028 -0.45608,0.056 -0.68368,0.0858 -0.0687,0.009 -0.13401,0.0131 -0.19534,0.0129 -0.0545,0.0318 -0.10681,0.068 -0.15709,0.1049 -0.0432,0.033 -0.0859,0.0665 -0.12816,0.10077 0.004,0.033 -0.0568,0.0925 -0.21342,0.1943 -0.0147,0.01 0.04,-0.0549 0.0305,-0.0357 0.0588,-0.0553 0.12024,-0.10778 0.18294,-0.15864 -0.0199,-0.1659 -1.69046,0.34445 -1.16324,-0.43409 0.0594,-0.0877 0.12606,-0.17031 0.20516,-0.24132 0.13615,-0.1257 0.2787,-0.24453 0.42788,-0.3545 0.22849,-0.15925 0.4709,-0.30249 0.74466,-0.36794 0.0526,-0.0108 0.10513,-0.0238 0.15813,-0.0326 0.19428,-0.0321 0.39286,-0.0196 0.58859,-0.0181 0.0491,0.001 0.0982,0.002 0.14728,0.004 0.0502,-0.006 0.10023,-0.0124 0.15038,-0.0186 0.26742,-0.0347 0.53568,-0.0646 0.8046,-0.0847 0.23742,-0.0173 0.4752,-0.0219 0.71313,-0.0253 0.078,-0.002 0.15609,-0.003 0.2341,-0.003 z m 1.82418,1.59525 c 0.005,0.008 0.0415,0.0332 0.005,0.004 -0.002,-10e-4 -0.003,-0.003 -0.005,-0.004 z" />
    </clipPath>
    <clipPath
       clipPathUnits="userSpaceOnUse"
       id="clipPath4411">
      <path
         id="path4413"
         style="fill:#ff0000;fill-opacity:1;fill-rule:nonzero;stroke:none;stroke-width:0.264583"
         d="m 191.18058,259.31487 -40.12623,5.3e-4 v 0.28577 c 0.005,-0.001 0.0106,-0.003 0.0165,-0.004 0.007,-0.001 0.0149,-0.001 0.0222,-0.002 0.006,-10e-4 0.0129,-0.002 0.0196,-0.003 0.005,-5.3e-4 0.0115,-5.3e-4 0.0165,-5.3e-4 5.3e-4,2e-5 0.002,1e-5 0.003,0 0.005,-10e-4 0.0115,-0.002 0.0119,-0.003 0.0122,-0.003 0.0247,-0.004 0.0372,-0.005 0.008,-5.3e-4 0.0158,-8e-4 0.0238,-10e-4 0.009,-1.2e-4 0.0174,10e-6 0.0264,0 0.008,-2e-5 0.0158,0 0.0238,0 0.007,-1e-5 0.0137,0 0.0207,0 h 0.0196 c 0.0108,-5.3e-4 0.0211,7.9e-4 0.032,0.002 0.0247,0.005 0.0445,0.0191 0.063,0.0351 0.002,0.002 0.003,0.003 0.005,0.005 l 5.3e-4,5.3e-4 c 0.003,10e-4 0.006,0.002 0.009,0.004 0.003,0.002 0.006,0.003 0.008,0.005 2.7e-4,2.4e-4 8e-4,2.6e-4 0.001,5.3e-4 l 5.3e-4,5.3e-4 c 2.7e-4,1.2e-4 8e-4,5.3e-4 10e-4,5.3e-4 h 5.3e-4 v 5.3e-4 h 5.3e-4 c 0.002,5.3e-4 0.004,7.9e-4 0.006,0.002 2.6e-4,5e-5 7.9e-4,5.3e-4 10e-4,5.3e-4 0.006,0.001 0.0124,0.003 0.0186,0.004 0.002,5.3e-4 0.005,7.9e-4 0.007,0.002 0.0129,0.004 0.0253,0.009 0.0372,0.015 1.4e-4,5e-5 0.001,2.7e-4 0.002,5.3e-4 5.3e-4,1.5e-4 3e-5,1.9e-4 0.001,5.3e-4 0.003,0.001 0.009,0.003 0.0109,0.003 0.0188,0.005 0.0372,0.0122 0.0543,0.0217 0.0197,0.0104 0.0396,0.0212 0.0574,0.0346 0.0173,0.0133 0.0339,0.0275 0.0512,0.0408 0.0224,0.018 0.0448,0.0364 0.0651,0.0569 0.0222,0.022 0.0436,0.0447 0.0646,0.0677 0.0143,0.0159 0.0281,0.0319 0.0408,0.0491 h 5.3e-4 c 0.0678,0.0922 0.0357,0.17066 -0.0243,0.18085 0.58606,0.36187 1.04231,1.17247 1.04231,2.43655 v 0.0145 0.0997 0.10594 c 0,0.027 -10e-6,0.0541 0,0.0811 1e-5,0.0314 -7e-5,0.0631 0,0.0946 2e-5,0.007 -3e-5,0.0148 0,0.0222 0.10639,0.16855 0.2224,0.33168 0.31419,0.50901 0.0932,0.16314 0.19004,0.32448 0.30438,0.47388 0.0189,0.0253 0.0388,0.0503 0.0579,0.0754 0.0633,8e-4 0.12682,8e-4 0.19017,-5.3e-4 0.41791,7e-5 0.83576,-2.4e-4 1.25367,0 0.634,5.3e-4 1.26717,10e-4 1.90117,0.003 0.97238,0.002 1.94479,0.006 2.91714,0.015 1.10934,0.0119 2.2189,0.0241 3.32744,0.0708 0.70311,0.0382 1.40586,0.0864 2.10788,0.14108 0.34611,0.034 0.69166,0.0744 1.03818,0.10387 0.29644,0.0143 0.59261,0.0133 0.88935,0.0165 0.36053,0.006 0.72146,0.0145 1.08159,0.0331 0.53263,0.0253 1.06489,0.0569 1.59784,0.0744 0.74016,0.001 1.48038,0.002 2.22053,0.007 0.87248,0.006 1.74513,0.0143 2.61742,0.0341 0.98981,0.0243 1.9796,0.0498 2.96777,0.11473 0.71384,0.0642 1.42553,0.14677 2.13786,0.22479 0.0246,5.3e-4 0.0493,10e-4 0.0739,0.002 0.27123,7.9e-4 0.54212,0.0153 0.81236,0.0372 0.16312,0.0143 0.32684,0.0205 0.49041,0.0269 0.0457,0.004 0.0917,0.002 0.13746,0.006 0.005,4e-5 0.009,5.3e-4 0.0134,5.3e-4 0.0693,0.006 0.19995,-0.0399 0.21239,0.016 0.1134,0.0287 0.0863,0.10777 -0.002,0.30283 -0.005,0.57265 0.0184,1.03903 0.0527,1.4273 5.3e-4,-1.6e-4 5.3e-4,-2.5e-4 0.002,-5.3e-4 0.01,-0.003 0.0198,-0.004 0.03,-0.005 0.0102,-10e-4 0.0205,2.7e-4 0.0305,0.003 0.007,0.002 0.0142,0.005 0.0212,0.007 0.004,0.001 0.007,0.002 0.0109,0.003 0.003,10e-4 0.0105,0.003 0.0134,0.005 0.004,0.003 0.006,0.006 0.0103,0.009 7.9e-4,0.002 0.001,0.003 0.002,0.005 0.006,-0.008 0.0135,-0.0159 0.0212,-0.0227 0.004,-0.004 0.008,-0.007 0.0124,-0.0103 0.0107,-0.003 0.0209,-0.008 0.032,-0.008 0.006,0 0.013,0.003 0.017,0.008 0.0113,0.0117 0.0143,0.0208 0.0145,0.0315 0.005,-0.002 0.009,-0.005 0.0135,-0.007 0.0186,-0.008 0.0402,-0.0142 0.0605,-0.0165 0.005,-5.3e-4 0.0105,-1.2e-4 0.0155,-5.3e-4 0.004,2.2e-4 0.008,2.7e-4 0.0124,5.3e-4 0.006,-7.9e-4 0.0117,-5.3e-4 0.0176,-0.002 -0.0151,-0.007 -0.0299,-0.0134 -0.0445,-0.0212 -0.0337,-0.0181 0.0768,-0.009 0.11473,-0.004 0.004,5.2e-4 0.009,0.002 0.0129,0.003 h 0.0677 c 0.0269,0 0.0537,3e-5 0.0806,0 0.0323,0 0.0638,-5.3e-4 0.0961,-5.3e-4 0.0253,-5e-5 0.0512,2.4e-4 0.0765,0 0.0253,-2.6e-4 0.0506,-2.6e-4 0.076,-0.002 0.002,-5.2e-4 0.004,-5.2e-4 0.006,-0.001 0.0345,-0.008 0.0699,-0.0142 0.10542,-0.0145 0.0115,-0.004 0.0144,-0.004 0.0258,-0.008 0.001,-5.3e-4 0.001,3e-5 0.002,-5.3e-4 0.0207,-0.008 0.0128,-0.005 0.0512,-0.0186 0.0413,-0.008 0.0813,-0.0177 0.12299,-0.0212 0.0194,-0.002 0.0489,-0.009 0.0661,-0.009 0.0188,-0.004 0.0474,-0.0106 0.0512,-0.009 -0.003,0.001 -0.0134,0.003 -0.017,0.005 -7.9e-4,5.3e-4 -0.002,-10e-4 -0.003,0.002 0.0247,-0.007 0.0492,-0.0143 0.0739,-0.0212 h 10e-4 c 0.001,-2.5e-4 0.003,2e-5 0.005,-5.3e-4 0.0414,-0.036 0.0812,-0.0521 0.11472,-0.0527 0.0229,-5.3e-4 0.0425,0.007 0.0579,0.0186 0.0123,-0.003 0.0243,-0.005 0.0269,-0.006 0.05,-0.007 0.0268,-0.005 0.0522,-0.007 l 0.008,-5.2e-4 c -2.6e-4,9e-5 -7.9e-4,5.2e-4 -0.001,5.2e-4 0.001,-2.6e-4 0.002,-1.4e-4 0.003,-5.2e-4 h 5.3e-4 c 5.3e-4,-3e-5 0.004,-10e-4 0.004,-10e-4 0.004,-0.001 0.007,-0.002 0.0103,-0.003 0.0134,-0.006 0.0437,-0.0192 0.0259,-0.009 -0.001,5.3e-4 0.002,7e-5 0.003,-5.3e-4 0.0334,-0.0151 0.0653,-0.0353 0.0997,-0.0486 0.0362,-0.0152 0.0727,-0.0306 0.10904,-0.0455 0.0232,-0.009 0.0462,-0.0183 0.0682,-0.0305 0.0405,-0.0195 0.0826,-0.0367 0.12609,-0.0481 0.0349,-0.0107 0.0693,-0.0221 0.10542,-0.0284 0.004,-8e-4 0.0185,-0.004 0.031,-0.007 0.0333,-0.0129 0.0467,-0.0161 0.0491,-0.016 h 0.001 c 0.0286,-0.0128 0.0581,-0.023 0.0879,-0.0341 10e-4,-1e-4 0.002,-5.3e-4 0.002,-5.3e-4 0.0162,-0.004 0.0386,-0.0108 0.0584,-0.015 0.003,-10e-4 0.005,-0.002 0.008,-0.004 10e-4,-8e-4 0.003,-10e-4 0.005,-0.002 0.0236,-0.009 0.0453,-0.0222 0.0677,-0.0336 7.9e-4,-5.3e-4 0.001,-5.3e-4 0.002,-10e-4 0.007,-0.006 0.006,-0.005 0.01,-0.009 5.3e-4,-0.002 0.007,-0.008 0.0119,-0.0119 2.6e-4,0 7.9e-4,1e-5 0.001,-5.3e-4 h 5.3e-4 l 0.002,-0.002 c 0.006,-0.006 0.006,-0.007 0.0103,-0.0114 0.008,-0.009 0.0166,-0.0194 0.0248,-0.0284 0.003,-0.002 0.005,-0.005 0.007,-0.007 0.0127,-0.0129 0.0252,-0.0262 0.0377,-0.0393 0.001,-0.002 0.005,-0.006 0.007,-0.008 l 5.3e-4,-5.3e-4 5.3e-4,-5.3e-4 c 5.3e-4,-10e-4 -0.001,-0.003 0.002,-0.003 0.0245,-0.0361 0.025,-0.035 0.0434,-0.0558 0.002,-0.002 0.003,-0.004 0.005,-0.006 0.006,-0.007 0.0151,-0.0195 0.0165,-0.0228 0.0173,-0.0233 0.0352,-0.0463 0.0522,-0.0698 0.0158,-0.0184 0.018,-0.0207 0.0243,-0.0279 0.002,-0.003 0.002,-0.003 0.0145,-0.0181 0.007,-0.008 0.0154,-0.0146 0.0227,-0.0222 0.003,-0.004 0.0179,-0.0184 0.0233,-0.0243 h 5.2e-4 c 0.001,-10e-4 0.002,-0.002 0.003,-0.004 h 5.3e-4 v -5.3e-4 c 0.004,-0.004 0.0129,-0.0111 0.0155,-0.0129 0.002,-0.001 5.3e-4,-0.002 0.003,-0.003 0.002,-0.002 0.004,-0.003 0.006,-0.005 0.004,-0.004 0.007,-0.006 0.0134,-0.0124 l 5.3e-4,-5.3e-4 c 5.3e-4,-8e-4 5e-5,-2.7e-4 5.3e-4,-10e-4 5.3e-4,-7.9e-4 7.9e-4,10e-5 0.001,-5.3e-4 l 0.003,-0.006 c 0.001,-0.002 0.003,-0.003 0.004,-0.005 l 0.003,-0.006 c 7.9e-4,-7.9e-4 -0.001,-0.002 0.002,-0.003 0.002,-0.003 0.004,-0.006 0.0139,-0.0227 0.0171,-0.0219 0.0147,-0.0196 0.0207,-0.0274 -0.008,0.0106 0.0323,-0.0433 0.0243,-0.0326 0.002,-0.003 0.005,-0.006 0.008,-0.009 5.3e-4,-5.2e-4 -1.2e-4,-0.002 5.3e-4,-0.002 0.009,-0.0186 0.02,-0.044 0.0227,-0.0486 h -5.3e-4 c 0.1108,-0.25491 0.27939,-0.36428 0.42633,-0.36432 0.22923,-6e-5 0.40556,0.26595 0.22789,0.66146 -0.0186,0.0414 -0.0392,0.0817 -0.061,0.12144 -0.0172,0.028 -0.0359,0.055 -0.0568,0.0801 -0.003,0.005 -0.0143,0.0203 -0.0263,0.0346 -8e-4,7.9e-4 -5.3e-4,0.002 -0.002,0.003 v 5.3e-4 c -0.002,0.002 -0.003,0.004 -0.005,0.007 -7.9e-4,0.001 0.001,0.002 -0.002,0.003 -0.001,0.002 -1.5e-4,10e-5 -0.002,0.003 -5.3e-4,8e-4 -7.9e-4,2.3e-4 -0.001,0.002 -2.6e-4,2.6e-4 -7.9e-4,10e-4 0,-0.002 l -0.007,0.0109 -0.006,0.009 c -5.3e-4,7.9e-4 9e-5,2.6e-4 -5.3e-4,0.002 -0.001,10e-4 -0.002,0.002 -0.003,0.004 -0.004,0.007 -0.006,0.0119 0,0.002 -0.021,0.0354 -0.0498,0.0679 -0.0811,0.0966 -0.002,0.002 -0.005,0.004 -0.008,0.007 -0.0115,0.0118 -0.0155,0.0147 -0.0227,0.0207 -0.001,7.9e-4 -0.008,0.006 -0.0104,0.009 l -0.007,0.007 -0.007,0.007 c -7.9e-4,5.3e-4 -0.003,0.002 -0.004,0.003 l -5.3e-4,10e-4 c -0.004,0.005 -0.006,0.007 -0.0104,0.0114 -0.0113,0.0173 -0.0247,0.0336 -0.0372,0.0501 -0.0136,0.02 -0.0284,0.0385 -0.0439,0.0568 -0.002,0.003 -0.004,0.005 -0.006,0.007 -0.005,0.007 -0.009,0.0142 -0.015,0.0212 -0.0199,0.0278 -0.0424,0.0538 -0.0656,0.0791 -0.0106,0.0112 -0.0214,0.022 -0.032,0.0331 -0.001,10e-4 -0.0138,0.0151 -0.0217,0.0238 0.0339,-0.003 0.0679,-0.005 0.1018,-0.008 0.13667,-0.01 0.27388,-0.0134 0.41083,-0.016 0.12188,-0.002 0.24396,-0.003 0.36587,-0.003 0.0816,-0.002 0.16293,0.003 0.24391,0.0124 0.0258,0.002 0.0511,0.007 0.077,0.008 0.0675,0.003 0.13507,-1.5e-4 0.20257,-0.004 0.10559,-0.005 0.2112,-0.0133 0.31678,-0.0186 0.0573,-0.003 0.11468,-0.005 0.17208,-0.007 0.0298,-7.9e-4 0.0596,-0.001 0.0894,-0.002 0.0356,-10e-5 0.071,0.003 0.10645,0.007 0.0294,0.004 0.0593,0.006 0.0889,0.008 0.0442,0.004 0.0886,0.006 0.13281,0.007 0.10007,0.003 0.20013,0.005 0.30024,0.007 0.11374,0.003 0.2271,5.3e-4 0.34054,-0.008 0.0827,-0.007 0.16545,-0.017 0.24805,-0.0248 0.0475,-0.005 0.0949,-0.008 0.14263,-0.0103 0.0547,-0.002 0.10963,-0.002 0.16433,0 0.0645,0.004 0.12919,0.007 0.19379,0.0103 0.0495,0.002 0.0988,0.002 0.14831,0.003 0.0226,0.002 0.0444,-0.002 0.0661,-0.006 0.0566,-0.0121 0.11374,-0.022 0.17105,-0.0305 0.045,-0.007 0.0901,-0.0116 0.13539,-0.015 0.0181,-0.002 0.0363,-0.002 0.0543,-0.003 0.008,-0.003 0.0564,-0.0121 0.0579,-0.0124 0.0335,-0.006 0.0674,-0.009 0.10129,-0.0108 0.0199,-10e-4 0.0406,-0.002 0.0605,-0.002 0.0189,-2.6e-4 0.0373,-10e-4 0.0563,-10e-4 0.0223,-3e-5 0.0449,2e-5 0.0672,0 h 0.008 c 0.17433,-3e-5 0.28871,0.0617 0.34159,0.14159 0.002,-2.4e-4 0.003,-2.5e-4 0.005,-5.3e-4 0.024,-0.0169 0.0476,-0.0342 0.0723,-0.0501 0.006,-0.003 0.0121,-0.007 0.0181,-0.0103 0.0811,-0.047 0.15694,-0.0669 0.22375,-0.0672 0.27397,-10e-4 0.39418,0.32881 0.0827,0.48215 h 1.24075 v -0.20672 c -0.14855,0.0832 -0.34984,-0.033 -0.34984,-0.34882 v -0.006 -0.015 -0.016 c 0,-0.0116 0,-0.023 0,-0.0346 0,-0.0258 0,-0.0517 0,-0.0775 -3e-5,-0.0392 7e-5,-0.0786 0,-0.11782 -4e-5,-0.01 -5.3e-4,-0.0199 -0.001,-0.03 -0.001,-0.0172 -0.002,-0.035 -0.003,-0.0522 -0.003,-0.0366 -0.008,-0.0728 -0.0145,-0.10904 -0.01,-0.0573 -0.0239,-0.11411 -0.0289,-0.17208 -0.003,-0.0514 -0.004,-0.10303 -0.006,-0.15451 -0.002,-0.0532 -0.004,-0.10644 -0.003,-0.15968 -0.001,-0.0622 -5.3e-4,-0.12435 -0.002,-0.18655 0,-0.0565 -1.7e-4,-0.11307 -0.005,-0.1695 -0.002,-0.0619 -0.001,-0.12362 -0.002,-0.18552 -10e-4,-0.0966 -0.002,-0.19337 0.002,-0.28991 0.005,-0.12022 0.0133,-0.24029 0.0238,-0.36018 0.01,-0.11474 0.0161,-0.22955 0.0181,-0.34468 0.003,-0.12186 0.004,-0.24407 0.009,-0.36587 0.003,-0.0658 0.006,-0.13168 0.0103,-0.1974 -0.046,-0.0497 -0.0865,-0.10445 -0.12454,-0.16072 -0.0349,-0.0143 -0.0701,-0.0284 -0.10542,-0.0419 h -5.3e-4 c -0.0244,0.002 -0.0488,0.004 -0.0734,0.006 -0.0603,2.6e-4 -0.12068,0.005 -0.18087,0.002 -0.0715,-0.004 -0.14055,-0.0177 -0.20722,-0.0367 -0.062,-0.001 -0.12405,-0.003 -0.18603,-0.004 -0.22783,0.028 -0.45608,0.056 -0.68368,0.0858 -0.0687,0.009 -0.13401,0.0131 -0.19534,0.0129 -0.0545,0.0318 -0.10682,0.068 -0.1571,0.1049 -0.0432,0.033 -0.0859,0.0665 -0.12815,0.10077 0.004,0.033 -0.0568,0.0925 -0.21343,0.1943 -0.0147,0.01 0.04,-0.0549 0.0305,-0.0357 0.0588,-0.0553 0.12024,-0.10778 0.18294,-0.15864 -0.0199,-0.16591 -1.69046,0.34445 -1.16324,-0.43408 0.0594,-0.0877 0.12606,-0.17033 0.20516,-0.24133 0.13615,-0.12569 0.2787,-0.24452 0.42788,-0.3545 0.22849,-0.15924 0.47089,-0.30249 0.74465,-0.36794 0.0526,-0.0108 0.10513,-0.0239 0.15813,-0.0326 0.18371,-0.0304 0.3712,-0.021 0.55656,-0.0186 0.0233,-0.0238 0.047,-0.0472 0.0724,-0.0693 0.0298,-0.12433 0.0779,-0.24447 0.13849,-0.35656 0.0377,-0.0557 0.0703,-0.11517 0.11265,-0.16743 0.18575,-0.22938 0.4688,-0.35958 0.75448,-0.40308 0.004,-2.6e-4 0.008,-5.3e-4 0.0124,-0.002 l 0.0124,-0.0124 c 0.006,-0.0583 0.0109,-0.1167 0.0134,-0.17518 0.002,-0.0451 0.003,-0.0902 0.004,-0.1354 5.3e-4,-0.0366 7.9e-4,-0.0735 0.001,-0.11007 9e-5,-0.0272 0,-0.0544 0,-0.0816 1e-5,-0.0213 0,-0.0427 0,-0.0641 v -0.0651 -0.0367 c -0.005,-0.015 -0.008,-0.0305 -0.0114,-0.0475 -0.004,-0.004 -0.008,-0.008 -0.0124,-0.0119 -0.0617,-0.0619 -0.0986,-0.14552 -0.11576,-0.22996 -0.002,-0.0217 -0.005,-0.0433 -0.007,-0.0651 -0.004,-0.0572 0.007,-0.11566 0.0207,-0.17105 h -5.3e-4 c 0.0402,-0.17512 0.16858,-0.24367 0.29714,-0.24649 0.0618,-10e-4 0.12359,0.0123 0.1757,0.0367 z m -39.73969,0.3452 c 0.002,0.002 0.004,0.005 0.007,0.008 -0.002,-0.003 -0.005,-0.006 -0.007,-0.008 z m 0.005,0.18139 c -9e-5,0.004 -2.7e-4,0.009 -5.3e-4,0.0129 -0.002,0.0247 -0.0122,0.047 -0.0258,0.0672 -0.004,0.006 -0.009,0.0116 -0.0145,0.0171 0.0948,0.0244 0.188,0.0604 0.27905,0.10542 -0.009,-0.012 -0.0188,-0.023 -0.0289,-0.0341 -0.0188,-0.0205 -0.0381,-0.0409 -0.0579,-0.0605 -0.0157,-0.0158 -0.0327,-0.03 -0.0501,-0.0439 -0.0162,-0.0119 -0.0308,-0.0259 -0.047,-0.0377 -0.01,-0.007 -0.0212,-0.0124 -0.032,-0.0181 -0.005,-0.003 -0.01,-0.005 -0.016,-0.007 -0.002,-5.3e-4 -0.004,-10e-4 -0.006,-0.002 z m 33.34318,6.51639 c -0.002,0.001 -0.003,0.002 -0.005,0.004 7.9e-4,-5.3e-4 0.004,-0.002 0.005,-0.003 z m -2.76572,0.31368 c 0.0242,0.009 0.0479,0.0181 0.0729,0.0243 0.0143,0.004 -0.0272,-0.0109 -0.0408,-0.0165 -0.0126,-0.003 -0.0224,-0.006 -0.032,-0.008 z" />
    </clipPath>
    <marker
       id="marker-arrow-1.0616-36"
       orient="auto-start-reverse"
       refY="0"
       refX="0"
       markerHeight="1.690"
       markerWidth="0.911">
      <g
         transform="scale(1.343431298668676)"
         id="g441">
        <path
           d="M -1.55415,2.0722 C -1.42464,1.29512 0,0.1295 0.38852,0 0,-0.1295 -1.42464,-1.29512 -1.55415,-2.0722"
           style="fill:none;stroke:#000000;stroke-width:0.6;stroke-linecap:round;stroke-linejoin:round;stroke-miterlimit:10;stroke-dasharray:none;stroke-opacity:1"
           inkscape:connector-curvature="0"
           id="path439" />
      </g>
    </marker>
    <marker
       id="marker-arrow-1.0616-7"
       orient="auto-start-reverse"
       refY="0"
       refX="0"
       markerHeight="1.690"
       markerWidth="0.911">
      <g
         transform="scale(1.343431298668676)"
         id="g499">
        <path
           d="M -1.55415,2.0722 C -1.42464,1.29512 0,0.1295 0.38852,0 0,-0.1295 -1.42464,-1.29512 -1.55415,-2.0722"
           style="fill:none;stroke:#000000;stroke-width:0.6;stroke-linecap:round;stroke-linejoin:round;stroke-miterlimit:10;stroke-dasharray:none;stroke-opacity:1"
           inkscape:connector-curvature="0"
           id="path497" />
      </g>
    </marker>
    <marker
       id="marker-arrow-1.0616-5"
       orient="auto-start-reverse"
       refY="0"
       refX="0"
       markerHeight="1.690"
       markerWidth="0.911">
      <g
         transform="scale(1.343431298668676)"
         id="g566">
        <path
           d="M -1.55415,2.0722 C -1.42464,1.29512 0,0.1295 0.38852,0 0,-0.1295 -1.42464,-1.29512 -1.55415,-2.0722"
           style="fill:none;stroke:#000000;stroke-width:0.6;stroke-linecap:round;stroke-linejoin:round;stroke-miterlimit:10;stroke-dasharray:none;stroke-opacity:1"
           inkscape:connector-curvature="0"
           id="path564" />
      </g>
    </marker>
    <marker
       id="marker-arrow-1.0616-35"
       orient="auto-start-reverse"
       refY="0"
       refX="0"
       markerHeight="1.690"
       markerWidth="0.911">
      <g
         transform="scale(1.343431298668676)"
         id="g642">
        <path
           d="M -1.55415,2.0722 C -1.42464,1.29512 0,0.1295 0.38852,0 0,-0.1295 -1.42464,-1.29512 -1.55415,-2.0722"
           style="fill:none;stroke:#000000;stroke-width:0.6;stroke-linecap:round;stroke-linejoin:round;stroke-miterlimit:10;stroke-dasharray:none;stroke-opacity:1"
           inkscape:connector-curvature="0"
           id="path640" />
      </g>
    </marker>
    <marker
       id="marker-arrow-1.0616-62"
       orient="auto-start-reverse"
       refY="0"
       refX="0"
       markerHeight="1.690"
       markerWidth="0.911">
      <g
         transform="scale(1.343431298668676)"
         id="g727">
        <path
           d="M -1.55415,2.0722 C -1.42464,1.29512 0,0.1295 0.38852,0 0,-0.1295 -1.42464,-1.29512 -1.55415,-2.0722"
           style="fill:none;stroke:#000000;stroke-width:0.6;stroke-linecap:round;stroke-linejoin:round;stroke-miterlimit:10;stroke-dasharray:none;stroke-opacity:1"
           inkscape:connector-curvature="0"
           id="path725" />
      </g>
    </marker>
  </defs>
  <sodipodi:namedview
     id="base"
     pagecolor="#ffffff"
     bordercolor="#666666"
     borderopacity="1.0"
     inkscape:pageopacity="0.0"
     inkscape:pageshadow="2"
     inkscape:zoom="1.0062638"
     inkscape:cx="484.46541"
     inkscape:cy="146.58184"
     inkscape:document-units="mm"
     inkscape:current-layer="layer1"
     showgrid="false"
     showborder="true"
     width="200mm"
     showguides="false"
     inkscape:guide-bbox="true"
     inkscape:window-width="1920"
     inkscape:window-height="1080"
     inkscape:window-x="0"
     inkscape:window-y="1440"
     inkscape:window-maximized="1"
     inkscape:showpageshadow="2"
     inkscape:pagecheckerboard="0"
     inkscape:deskcolor="#d1d1d1">
    <inkscape:grid
       type="xygrid"
       id="grid815"
       units="mm"
       spacingx="10"
       spacingy="10"
       empspacing="4"
       dotted="false" />
  </sodipodi:namedview>
  <metadata
     id="metadata5">
    <rdf:RDF>
      <cc:Work
         rdf:about="">
        <dc:format>image/svg+xml</dc:format>
        <dc:type
           rdf:resource="http://purl.org/dc/dcmitype/StillImage" />
      </cc:Work>
    </rdf:RDF>
  </metadata>
  <g
     inkscape:label="Layer 1"
     inkscape:groupmode="layer"
     id="layer1"
     transform="translate(0,-177)">
    <ellipse
       style="fill:none;fill-opacity:1;stroke:#000000;stroke-width:0.274355;stroke-dasharray:none;stroke-opacity:1;marker-start:none;marker-end:none"
       id="ellipse751"
       cx="193.5284"
       cy="199.57301"
       rx="3.3730452"
       ry="14.241786" />
    <path
       style="font-variation-settings:normal;opacity:1;vector-effect:none;fill:none;fill-opacity:1;stroke:black;stroke-width:0.28088167;stroke-linecap:butt;stroke-linejoin:miter;stroke-miterlimit:4;stroke-dasharray:0.28088167,0.70220417;stroke-dashoffset:0;stroke-opacity:1;-inkscape-stroke:none;marker-start:none;marker-end:none;stop-color:#000000;stop-opacity:1"
       d="M 36.084869,199.70513 H 102.11081"
       id="path360" />
    <path
       style="font-variation-settings:normal;opacity:1;vector-effect:none;fill:none;fill-opacity:1;stroke:#000000;stroke-width:0.264583px;stroke-linecap:butt;stroke-linejoin:miter;stroke-miterlimit:4;stroke-dasharray:none;stroke-dashoffset:0;stroke-opacity:1;-inkscape-stroke:none;stop-color:#000000;stop-opacity:1"
       d="M 46.288157,199.57284 V 185.33432"
       id="path362" />
    <path
       style="font-variation-settings:normal;opacity:1;vector-effect:none;fill:none;fill-opacity:1;stroke:#000000;stroke-width:0.264583px;stroke-linecap:butt;stroke-linejoin:miter;stroke-miterlimit:4;stroke-dasharray:none;stroke-dashoffset:0;stroke-opacity:1;-inkscape-stroke:none;stop-color:#000000;stop-opacity:1"
       d="M 46.288157,185.33432 H 91.734058"
       id="path368" />
    <path
       style="font-variation-settings:normal;opacity:1;vector-effect:none;fill:none;fill-opacity:1;stroke:#000000;stroke-width:0.264583px;stroke-linecap:butt;stroke-linejoin:miter;stroke-miterlimit:4;stroke-dasharray:none;stroke-dashoffset:0;stroke-opacity:1;-inkscape-stroke:none;stop-color:#000000;stop-opacity:1"
       d="m 91.734058,185.33432 v 14.23852"
       id="path370" />
    <path
       style="fill:none;fill-opacity:1;stroke:#000000;stroke-width:0.280882;stroke-dasharray:none;stroke-opacity:1;marker-start:none;marker-end:url(#marker-arrow-1.0616)"
       id="path426"
       sodipodi:type="arc"
       sodipodi:cx="-101.81948"
       sodipodi:cy="200.01869"
       sodipodi:rx="3.0135477"
       sodipodi:ry="7.4243746"
       sodipodi:start="0"
       sodipodi:end="5.6723201"
       sodipodi:arc-type="arc"
       d="m -98.805933,200.01869 a 3.0135477,7.4243746 0 0 1 -2.555117,7.33797 3.0135477,7.4243746 0 0 1 -3.3325,-5.10542 3.0135477,7.4243746 0 0 1 1.54121,-8.89127 3.0135477,7.4243746 0 0 1 3.801413,2.40028"
       sodipodi:open="true"
       transform="scale(-1,1)" />
    <path
       style="font-variation-settings:normal;opacity:1;vector-effect:none;fill:none;fill-opacity:1;stroke:black;stroke-width:0.28088167;stroke-linecap:butt;stroke-linejoin:miter;stroke-miterlimit:4;stroke-dasharray:0.28088167,0.70220417;stroke-dashoffset:0;stroke-opacity:1;-inkscape-stroke:none;marker-start:none;marker-end:none;stop-color:#000000;stop-opacity:1"
       d="m 137.68499,199.70513 h 66.02632"
       id="path652" />
    <path
       style="font-variation-settings:normal;opacity:1;vector-effect:none;fill:none;fill-opacity:1;stroke:#000000;stroke-width:0.264583px;stroke-linecap:butt;stroke-linejoin:miter;stroke-miterlimit:4;stroke-dasharray:none;stroke-dashoffset:0;stroke-opacity:1;-inkscape-stroke:none;stop-color:#000000;stop-opacity:1"
       d="M 147.88834,185.33432 H 193.3345"
       id="path656" />
    <path
       style="fill:none;fill-opacity:1;stroke:#000000;stroke-width:0.274355;stroke-dasharray:none;stroke-opacity:1;marker-start:none;marker-end:none"
       id="path749"
       sodipodi:type="arc"
       sodipodi:cx="148.02063"
       sodipodi:cy="199.57301"
       sodipodi:rx="3.3730452"
       sodipodi:ry="14.241786"
       sodipodi:start="1.5707963"
       sodipodi:end="4.712389"
       sodipodi:arc-type="arc"
       d="m 148.02063,213.8148 a 3.3730452,14.241786 0 0 1 -2.92114,-7.12089 3.3730452,14.241786 0 0 1 0,-14.24179 3.3730452,14.241786 0 0 1 2.92114,-7.12089"
       sodipodi:open="true" />
    <path
       style="fill:none;fill-opacity:1;stroke:#000000;stroke-width:0.280882;stroke-dasharray:1.05331, 1.05331;stroke-opacity:1;marker-start:none;marker-end:none"
       id="path755"
       sodipodi:type="arc"
       sodipodi:cx="-147.68513"
       sodipodi:cy="199.57301"
       sodipodi:rx="3.3730452"
       sodipodi:ry="14.241786"
       sodipodi:start="1.5707963"
       sodipodi:end="4.712389"
       sodipodi:arc-type="arc"
       d="m -147.68513,213.8148 a 3.3730452,14.241786 0 0 1 -2.92115,-7.12089 3.3730452,14.241786 0 0 1 0,-14.24179 3.3730452,14.241786 0 0 1 2.92115,-7.12089"
       sodipodi:open="true"
       transform="scale(-1,1)" />
    <path
       style="fill:none;fill-opacity:1;stroke:#000000;stroke-width:0.280882;stroke-dasharray:1.05331, 1.05331;stroke-opacity:1;marker-start:none;marker-end:none"
       id="path769"
       sodipodi:type="arc"
       sodipodi:cx="-147.68513"
       sodipodi:cy="199.57301"
       sodipodi:rx="3.3730452"
       sodipodi:ry="14.241786"
       sodipodi:start="1.5707963"
       sodipodi:end="4.712389"
       sodipodi:arc-type="arc"
       d="m -147.68513,213.8148 a 3.3730452,14.241786 0 0 1 -2.92115,-7.12089 3.3730452,14.241786 0 0 1 0,-14.24179 3.3730452,14.241786 0 0 1 2.92115,-7.12089"
       sodipodi:open="true"
       transform="scale(-1,1)" />
    <path
       style="fill:none;fill-opacity:1;stroke:#000000;stroke-width:0.274355;stroke-dasharray:none;stroke-opacity:1;marker-start:none;marker-end:none"
       id="path771"
       sodipodi:type="arc"
       sodipodi:cx="169.18706"
       sodipodi:cy="199.57301"
       sodipodi:rx="3.3730452"
       sodipodi:ry="14.241786"
       sodipodi:start="1.5707963"
       sodipodi:end="4.712389"
       sodipodi:arc-type="arc"
       d="m 169.18706,213.8148 a 3.3730452,14.241786 0 0 1 -2.92115,-7.12089 3.3730452,14.241786 0 0 1 0,-14.24179 3.3730452,14.241786 0 0 1 2.92115,-7.12089"
       sodipodi:open="true" />
    <path
       style="fill:none;fill-opacity:1;stroke:#000000;stroke-width:0.280882;stroke-dasharray:1.05331, 1.05331;stroke-opacity:1;marker-start:none;marker-end:none"
       id="path773"
       sodipodi:type="arc"
       sodipodi:cx="-168.85159"
       sodipodi:cy="199.57301"
       sodipodi:rx="3.3730452"
       sodipodi:ry="14.241786"
       sodipodi:start="1.5707963"
       sodipodi:end="4.712389"
       sodipodi:arc-type="arc"
       d="m -168.85159,213.8148 a 3.3730452,14.241786 0 0 1 -2.92115,-7.12089 3.3730452,14.241786 0 0 1 0,-14.24179 3.3730452,14.241786 0 0 1 2.92115,-7.12089"
       sodipodi:open="true"
       transform="scale(-1,1)" />
    <path
       style="font-variation-settings:normal;opacity:1;vector-effect:none;fill:none;fill-opacity:1;stroke:#000000;stroke-width:0.280882;stroke-linecap:butt;stroke-linejoin:miter;stroke-miterlimit:4;stroke-dasharray:none;stroke-dashoffset:0;stroke-opacity:1;-inkscape-stroke:none;marker-start:none;marker-end:none;stop-color:#000000;stop-opacity:1"
       d="M 148.02063,213.81462 H 193.5284"
       id="path775" />
    <path
       style="font-variation-settings:normal;opacity:1;vector-effect:none;fill:none;fill-opacity:1;stroke:black;stroke-width:0.28088167;stroke-linecap:butt;stroke-linejoin:miter;stroke-miterlimit:4;stroke-dasharray:1.05330625,1.05330625;stroke-dashoffset:0;stroke-opacity:1;-inkscape-stroke:none;marker-start:none;marker-end:url(#marker-arrow-1.0616);stop-color:#000000;stop-opacity:1"
       d="m 109.29395,199.71189 21.10109,-0.0344"
       id="path783" />
    <path
       style="fill:#000000;fill-opacity:0;stroke:#000000;stroke-width:0.27233;stroke-dasharray:none;stroke-opacity:1;marker-start:none;marker-end:none"
       id="path916"
       sodipodi:type="arc"
       sodipodi:cx="-170.98546"
       sodipodi:cy="-237.42863"
       sodipodi:rx="17.114426"
       sodipodi:ry="16.08658"
       sodipodi:start="0"
       sodipodi:end="3.1415927"
       sodipodi:open="true"
       sodipodi:arc-type="arc"
       d="m -153.87103,-237.42863 a 17.114426,16.08658 0 0 1 -8.55722,13.93138 17.114426,16.08658 0 0 1 -17.11442,0 17.114426,16.08658 0 0 1 -8.55721,-13.93138"
       transform="scale(-1)" />
    <path
       style="font-variation-settings:normal;opacity:1;vector-effect:none;fill:none;fill-opacity:1;stroke:black;stroke-width:0.28088167;stroke-linecap:butt;stroke-linejoin:miter;stroke-miterlimit:4;stroke-dasharray:0.28088167,0.70220417;stroke-dashoffset:0;stroke-opacity:1;-inkscape-stroke:none;marker-start:none;marker-end:none;stop-color:#000000;stop-opacity:1"
       d="M 36.084869,237.27621 H 102.11081"
       id="path884" />
    <path
       style="fill:#000000;fill-opacity:0;stroke:#000000;stroke-width:0.280882;stroke-dasharray:none;stroke-opacity:1;marker-start:none;marker-end:url(#marker-arrow-1.0616)"
       id="path892"
       sodipodi:type="arc"
       sodipodi:cx="-101.81948"
       sodipodi:cy="237.58902"
       sodipodi:rx="3.0135477"
       sodipodi:ry="7.4243746"
       sodipodi:start="0"
       sodipodi:end="5.6723201"
       sodipodi:arc-type="arc"
       d="m -98.805933,237.58902 a 3.0135477,7.4243746 0 0 1 -2.555117,7.33797 3.0135477,7.4243746 0 0 1 -3.3325,-5.10542 3.0135477,7.4243746 0 0 1 1.54121,-8.89127 3.0135477,7.4243746 0 0 1 3.801413,2.40027"
       sodipodi:open="true"
       transform="scale(-1,1)" />
    <path
       style="font-variation-settings:normal;opacity:1;vector-effect:none;fill:none;fill-opacity:1;stroke:black;stroke-width:0.28088167;stroke-linecap:butt;stroke-linejoin:miter;stroke-miterlimit:4;stroke-dasharray:0.28088167,0.70220417;stroke-dashoffset:0;stroke-opacity:1;-inkscape-stroke:none;marker-start:none;marker-end:none;stop-color:#000000;stop-opacity:1"
       d="m 137.68499,237.27621 h 66.02632"
       id="path894" />
    <path
       style="fill:#000000;fill-opacity:0;stroke:#000000;stroke-width:0.289989;stroke-dasharray:none;stroke-opacity:1;marker-start:none;marker-end:none"
       id="path904"
       sodipodi:type="arc"
       sodipodi:cx="170.98546"
       sodipodi:cy="237.2765"
       sodipodi:rx="3.3715978"
       sodipodi:ry="15.917988"
       sodipodi:start="1.5707963"
       sodipodi:end="4.712389"
       sodipodi:arc-type="arc"
       d="m 170.98546,253.19449 a 3.3715978,15.917988 0 0 1 -2.91989,-7.95899 3.3715978,15.917988 0 0 1 0,-15.91799 3.3715978,15.917988 0 0 1 2.91989,-7.95899"
       sodipodi:open="true" />
    <path
       style="fill:#000000;fill-opacity:0;stroke:#000000;stroke-width:0.296888;stroke-dasharray:1.11333, 1.11333;stroke-opacity:1;marker-start:none;marker-end:none"
       id="path906"
       sodipodi:type="arc"
       sodipodi:cx="-170.65013"
       sodipodi:cy="237.2765"
       sodipodi:rx="3.3715978"
       sodipodi:ry="15.917988"
       sodipodi:start="1.5707963"
       sodipodi:end="4.712389"
       sodipodi:arc-type="arc"
       d="m -170.65013,253.19449 a 3.3715978,15.917988 0 0 1 -2.91989,-7.95899 3.3715978,15.917988 0 0 1 0,-15.91799 3.3715978,15.917988 0 0 1 2.91989,-7.95899"
       sodipodi:open="true"
       transform="scale(-1,1)" />
    <path
       style="font-variation-settings:normal;opacity:1;vector-effect:none;fill:none;fill-opacity:1;stroke:black;stroke-width:0.28088167;stroke-linecap:butt;stroke-linejoin:miter;stroke-miterlimit:4;stroke-dasharray:1.05330625,1.05330625;stroke-dashoffset:0;stroke-opacity:1;-inkscape-stroke:none;marker-start:none;marker-end:url(#marker-arrow-1.0616);stop-color:#000000;stop-opacity:1"
       d="m 109.29395,237.28297 21.10109,-0.0344"
       id="path910" />
    <path
       style="fill:#000000;fill-opacity:0;stroke:#000000;stroke-width:0.280882;stroke-dasharray:none;stroke-opacity:1;marker-start:none;marker-end:none"
       id="path914"
       sodipodi:type="arc"
       sodipodi:cx="-69.011108"
       sodipodi:cy="-237.28456"
       sodipodi:rx="17.113581"
       sodipodi:ry="17.113581"
       sodipodi:start="0"
       sodipodi:end="3.1415927"
       sodipodi:open="true"
       sodipodi:arc-type="arc"
       d="m -51.897528,-237.28456 a 17.113581,17.113581 0 0 1 -8.55679,14.82079 17.113581,17.113581 0 0 1 -17.113581,0 17.113581,17.113581 0 0 1 -8.55679,-14.82079"
       transform="scale(-1)" />
    <path
       style="fill:#000000;fill-opacity:0;stroke:#000000;stroke-width:0.27233;stroke-dasharray:none;stroke-opacity:1;marker-start:none;marker-end:none"
       id="path918"
       sodipodi:type="arc"
       sodipodi:cx="170.98546"
       sodipodi:cy="237.12004"
       sodipodi:rx="17.114426"
       sodipodi:ry="16.08658"
       sodipodi:start="0"
       sodipodi:end="3.1415927"
       sodipodi:open="true"
       sodipodi:arc-type="arc"
       d="m 188.09988,237.12004 a 17.114426,16.08658 0 0 1 -8.55721,13.93139 17.114426,16.08658 0 0 1 -17.11442,0 17.114426,16.08658 0 0 1 -8.55722,-13.93139" />
    <path
       style="font-variation-settings:normal;opacity:1;vector-effect:none;fill:none;fill-opacity:1;stroke:black;stroke-width:0.28088167;stroke-linecap:butt;stroke-linejoin:miter;stroke-miterlimit:4;stroke-dasharray:0.28088167,0.70220417;stroke-dashoffset:0;stroke-opacity:1;-inkscape-stroke:none;marker-start:none;marker-end:none;stop-color:#000000;stop-opacity:1"
       d="M 36.614036,272.7306 H 102.63998"
       id="path922" />
    <path
       style="fill:none;fill-opacity:1;stroke:black;stroke-width:0.28088167;stroke-dasharray:none;stroke-opacity:1;marker-start:none;marker-end:url(#marker-arrow-1.0616)"
       id="path924"
       sodipodi:type="arc"
       sodipodi:cx="-102.34865"
       sodipodi:cy="273.04321"
       sodipodi:rx="3.0135477"
       sodipodi:ry="7.4243746"
       sodipodi:start="0"
       sodipodi:end="5.6723201"
       sodipodi:arc-type="arc"
       d="m -99.3351,273.04321 a 3.0135477,7.4243746 0 0 1 -2.55512,7.33797 3.0135477,7.4243746 0 0 1 -3.3325,-5.10541 3.0135477,7.4243746 0 0 1 1.54121,-8.89128 3.0135477,7.4243746 0 0 1 3.801416,2.40028"
       sodipodi:open="true"
       transform="scale(-1,1)" />
    <path
       style="font-variation-settings:normal;opacity:1;vector-effect:none;fill:none;fill-opacity:1;stroke:black;stroke-width:0.28088167;stroke-linecap:butt;stroke-linejoin:miter;stroke-miterlimit:4;stroke-dasharray:0.28088167,0.70220417;stroke-dashoffset:0;stroke-opacity:1;-inkscape-stroke:none;marker-start:none;marker-end:none;stop-color:#000000;stop-opacity:1"
       d="m 138.21416,272.7306 h 66.02632"
       id="path926" />
    <path
       style="font-variation-settings:normal;opacity:1;vector-effect:none;fill:none;fill-opacity:1;stroke:black;stroke-width:0.28088167;stroke-linecap:butt;stroke-linejoin:miter;stroke-miterlimit:4;stroke-dasharray:1.05330625,1.05330625;stroke-dashoffset:0;stroke-opacity:1;-inkscape-stroke:none;marker-start:none;marker-end:url(#marker-arrow-1.0616);stop-color:#000000;stop-opacity:1"
       d="m 109.82312,272.73736 21.10109,-0.0344"
       id="path932" />
    <path
       id="rect1048"
       style="fill:none;fill-opacity:1;stroke:#000000;stroke-width:0.280882;stroke-dasharray:none;stroke-opacity:1;marker-start:none;marker-end:none"
       d="m 151.19491,259.45595 v 7.40937 h 39.84511 v -3.79512 c -0.0112,-0.003 -0.0224,-0.006 -0.0336,-0.008 -0.12154,-0.0294 -0.24517,-0.0494 -0.36949,-0.0625 l -0.046,-0.004 c -0.53653,-0.0489 -0.51437,-0.56854 -0.0238,-0.57206 0.0241,-1.7e-4 0.0496,6.6e-4 0.076,0.003 0.0184,0.002 0.0364,0.003 0.0548,0.005 0.11475,0.0125 0.22911,0.0297 0.3421,0.0532 v -3.02875 z"
       clip-path="url(#clipPath4411)" />
    <rect
       style="fill:none;fill-opacity:1;stroke:black;stroke-width:0.28088167;stroke-dasharray:none;stroke-opacity:1;marker-start:none;marker-end:none"
       id="rect988"
       width="39.844681"
       height="7.4091129"
       x="46.420444"
       y="259.45602" />
    <path
       id="path1050"
       style="fill:none;fill-opacity:1;stroke:#000000;stroke-width:0.266892;stroke-dasharray:none;stroke-opacity:1;marker-start:none;marker-end:none"
       d="m 191.04002,259.44923 a 10.87112,13.421998 0 0 0 -10.87117,13.42192 10.87112,13.421998 0 0 0 10.87117,13.42192 10.87112,13.421998 0 0 0 10.87117,-13.42192 10.87112,13.421998 0 0 0 -10.87117,-13.42192 z m -0.47284,2.97398 c 0.0241,-1.7e-4 0.0496,6.6e-4 0.076,0.003 0.0184,0.002 0.0364,0.003 0.0548,0.005 0.14973,0.0164 0.29854,0.0406 0.44493,0.0765 0.15657,0.0389 0.3111,0.0859 0.46664,0.12867 0.1271,0.034 0.25505,0.0633 0.38293,0.094 0.54956,0.13202 0.4017,0.68157 -0.14832,0.55139 -0.12779,-0.0302 -0.25545,-0.0596 -0.3824,-0.0935 -0.15214,-0.0409 -0.3022,-0.0892 -0.45527,-0.12661 -0.12154,-0.0294 -0.24517,-0.0494 -0.36949,-0.0625 l -0.046,-0.004 c -0.53653,-0.0489 -0.51437,-0.56854 -0.0238,-0.57206 z"
       clip-path="url(#clipPath3961)" />
    <ellipse
       style="fill:none;fill-opacity:1;stroke:#000000;stroke-width:0.274269;stroke-dasharray:none;stroke-opacity:1;marker-start:none;marker-end:none"
       id="path1052"
       cx="191.03984"
       cy="272.87103"
       rx="4.7308888"
       ry="5.9782891"
       clip-path="url(#clipPath3280)" />
    <path
       id="path3326"
       style="fill:none;fill-opacity:1;stroke:#000000;stroke-width:0.266892;stroke-dasharray:none;stroke-opacity:1;marker-start:none;marker-end:none"
       d="m 191.04002,259.44923 a 10.87112,13.421998 0 0 0 -10.87117,13.42192 10.87112,13.421998 0 0 0 10.87117,13.42192 10.87112,13.421998 0 0 0 10.87117,-13.42192 10.87112,13.421998 0 0 0 -10.87117,-13.42192 z m -0.47284,2.97398 c 0.0241,-1.7e-4 0.0496,6.6e-4 0.076,0.003 0.0184,0.002 0.0364,0.003 0.0548,0.005 0.14973,0.0164 0.29854,0.0406 0.44493,0.0765 0.15657,0.0389 0.3111,0.0859 0.46664,0.12867 0.1271,0.034 0.25505,0.0633 0.38293,0.094 0.54956,0.13202 0.4017,0.68157 -0.14832,0.55139 -0.12779,-0.0302 -0.25545,-0.0596 -0.3824,-0.0935 -0.15214,-0.0409 -0.3022,-0.0892 -0.45527,-0.12661 -0.12154,-0.0294 -0.24517,-0.0494 -0.36949,-0.0625 l -0.046,-0.004 c -0.53653,-0.0489 -0.51437,-0.56854 -0.0238,-0.57206 z"
       clip-path="url(#clipPath3785)"
       transform="translate(-39.687519)" />
    <ellipse
       style="fill:none;fill-opacity:1;stroke:#000000;stroke-width:0.274269;stroke-dasharray:none;stroke-opacity:1;marker-start:none;marker-end:none"
       id="ellipse3328"
       cx="191.03984"
       cy="272.87103"
       rx="4.7308888"
       ry="5.9782891"
       clip-path="url(#clipPath3831)"
       transform="translate(-39.684909,-7.2e-4)" />
    <ellipse
       style="fill:none;fill-opacity:1;stroke:black;stroke-width:0.28088167;stroke-dasharray:1.05330625,1.05330625;stroke-opacity:1;marker-start:none;marker-end:none"
       id="ellipse4001"
       cx="191.03984"
       cy="272.87103"
       rx="4.7308888"
       ry="5.9782891"
       clip-path="url(#clipPath3831)"
       transform="matrix(-1,0,0,1,342.39496,-7.2e-4)" />
    <path
       id="path4105"
       style="fill:none;fill-opacity:1;stroke:#000000;stroke-width:0.266892;stroke-dasharray:none;stroke-opacity:1;marker-start:none;marker-end:none"
       d="m 191.04002,259.44923 a 10.87112,13.421998 0 0 0 -10.87117,13.42192 10.87112,13.421998 0 0 0 10.87117,13.42192 10.87112,13.421998 0 0 0 10.87117,-13.42192 10.87112,13.421998 0 0 0 -10.87117,-13.42192 z m -0.47284,2.97398 c 0.0241,-1.7e-4 0.0496,6.6e-4 0.076,0.003 0.0184,0.002 0.0364,0.003 0.0548,0.005 0.14973,0.0164 0.29854,0.0406 0.44493,0.0765 0.15657,0.0389 0.3111,0.0859 0.46664,0.12867 0.1271,0.034 0.25505,0.0633 0.38293,0.094 0.54956,0.13202 0.4017,0.68157 -0.14832,0.55139 -0.12779,-0.0302 -0.25545,-0.0596 -0.3824,-0.0935 -0.15214,-0.0409 -0.3022,-0.0892 -0.45527,-0.12661 -0.12154,-0.0294 -0.24517,-0.0494 -0.36949,-0.0625 l -0.046,-0.004 c -0.53653,-0.0489 -0.51437,-0.56854 -0.0238,-0.57206 z"
       clip-path="url(#clipPath3785)"
       transform="translate(-39.687519)" />
    <path
       id="path4143"
       style="fill:none;fill-opacity:1;stroke:black;stroke-width:0.28088167;stroke-dasharray:1.05330625,1.05330625;stroke-opacity:1;marker-start:none;marker-end:none"
       d="m 191.04002,259.44923 a 10.87112,13.421998 0 0 0 -10.87117,13.42192 10.87112,13.421998 0 0 0 10.87117,13.42192 10.87112,13.421998 0 0 0 10.87117,-13.42192 10.87112,13.421998 0 0 0 -10.87117,-13.42192 z m -0.47284,2.97398 c 0.0241,-1.7e-4 0.0496,6.6e-4 0.076,0.003 0.0184,0.002 0.0364,0.003 0.0548,0.005 0.14973,0.0164 0.29854,0.0406 0.44493,0.0765 0.15657,0.0389 0.3111,0.0859 0.46664,0.12867 0.1271,0.034 0.25505,0.0633 0.38293,0.094 0.54956,0.13202 0.4017,0.68157 -0.14832,0.55139 -0.12779,-0.0302 -0.25545,-0.0596 -0.3824,-0.0935 -0.15214,-0.0409 -0.3022,-0.0892 -0.45527,-0.12661 -0.12154,-0.0294 -0.24517,-0.0494 -0.36949,-0.0625 l -0.046,-0.004 c -0.53653,-0.0489 -0.51437,-0.56854 -0.0238,-0.57206 z"
       clip-path="url(#clipPath3785)"
       transform="matrix(-1,0,0,1,342.39258,0)" />
    <path
       style="font-variation-settings:normal;opacity:1;vector-effect:none;fill:black;fill-opacity:0.12;stroke:black;stroke-width:0.14044083;stroke-linecap:butt;stroke-linejoin:miter;stroke-miterlimit:4;stroke-dasharray:1.05330625,1.05330625;stroke-dashoffset:0;stroke-opacity:1;-inkscape-stroke:none;stop-color:#000000;stop-opacity:1;marker-end:none;marker-start:none"
       d="m 151.35512,266.89202 39.6849,-0.0267"
       id="path4451" />
    <path
       style="font-variation-settings:normal;opacity:1;vector-effect:none;fill:black;fill-opacity:0.12;stroke:black;stroke-width:0.14044083;stroke-linecap:butt;stroke-linejoin:miter;stroke-miterlimit:4;stroke-dasharray:1.05330625,1.05330625;stroke-dashoffset:0;stroke-opacity:1;-inkscape-stroke:none;stop-color:#000000;stop-opacity:1;marker-end:none;marker-start:none"
       d="m 191.03984,278.84932 -39.98249,0.13906"
       id="path4459" />
    <path
       style="font-variation-settings:normal;opacity:1;vector-effect:none;fill:none;fill-opacity:1;stroke:#000000;stroke-width:0.264583px;stroke-linecap:butt;stroke-linejoin:miter;stroke-miterlimit:4;stroke-dasharray:none;stroke-dashoffset:0;stroke-opacity:1;-inkscape-stroke:none;stop-color:#000000;stop-opacity:1"
       d="m 151.14194,286.29422 39.81356,-10e-6"
       id="path4467" />
  </g>
</svg>
